<svg xmlns="http://www.w3.org/2000/svg" width="460.401" height="234.524"><path data-name="Rectangle 214" fill="#bfe1f7" d="M127.559 28.071h144.872v53.216H127.559z" /><path data-name="Path 968" d="M230.542 78.877h39.827v-4.693c-16.227 0-39.827 4.693-39.827 4.693z" fill="#89cff3" style="mix-blend-mode:multiply;isolation:isolate" /><path data-name="Path 969" d="M207.273 78.877s-7.711-4.255-11.79-4.255c-4.906 0-6.035 1.16-12.051 1.16-4.323 0-7.334-3.819-13.137-3.819-5.11 0-6.335 2.946-15.647 2.946-11.733 0-9.781-6.913-22.948-6.913-.847 0-1.657.019-2.437.051v10.83z" fill="#89cff3" style="mix-blend-mode:multiply;isolation:isolate" /><path data-name="Path 970" d="M137.304 54.679h92.334s-5.53-4.17-9.517-4.17-4.893 1.58-7.248 1.58c-3.545 0-6.29-10.093-15.532-10.093-14.578 0-22.3 9.076-29.544 9.076-4.579 0-5.666-2.4-9.29-2.4-7.61 0-21.203 6.007-21.203 6.007z" fill="#fff" /><path data-name="Path 971" d="M235.652 46.513h25.142s-3-3.857-9.465-3.857-15.677 3.857-15.677 3.857z" fill="#fff" /><path data-name="Path 972" d="M347.428 11.719L271.365.07l-.446-.07-43.8 6.708-26.662-4.084-.445-.069-95.263 14.592.888 5.8 94.374-14.455 94.373 14.455.889-5.8-48.765-7.469 24.408-3.738 51 7.811v64.6h-46.2V25.076l-149.7.06h-1.312V84.22h203.087V14.65l18.747 2.872zM157.751 31.005h26.625v47.347h-26.625zm-2.325 47.347h-24.851V31.005h24.853zm31.275-47.347h26.627v47.347h-26.624zm28.949 0h26.624v47.347H215.65zm28.949 0h24.456v47.347h-24.456z" fill="#fff" /><path data-name="Path 973" d="M39.064 131.586c0 6.6-6.5 11.317-18.316 11.317-8.14 0-15.338-2.382-20.748-7.049l3.723-4.218c4.715 4.218 10.275 6.1 17.273 6.1 7.744 0 12.013-2.035 12.013-5.659 0-3.573-4.369-4.516-13.1-5.261-9.58-.794-18.615-2.929-18.615-10.027 0-6.9 7.992-10.721 17.969-10.721 7.545 0 13.948 2.234 18.118 5.757l-3.773 4.071c-3.573-3.127-8.488-4.616-14.246-4.665-5.509-.051-12.061 1.29-12.061 5.162 0 3.672 5.807 4.317 13.4 4.913 10.818.849 18.363 3.032 18.363 10.28z" fill="#fff" /><path data-name="Path 974" d="M100.928 107.114l13.254 17.622 13.154-17.622h6.849l-17.075 22.734v12.015h-5.956v-12.015l-17.126-22.734z" fill="#fff" /><path data-name="Path 975" d="M180.46 136.649v5.214h-34.6v-34.749h34.1v5.212h-28.194v9.283h23.727v5.211h-23.727v9.829z" fill="#fff" /><path data-name="Path 976" d="M274.847 107.114l-12.708 34.749h-6.155l-10.225-28.045-10.275 28.045h-6.1l-12.757-34.747h6.354l9.579 27.8 10.325-27.8h5.857l10.275 27.8 9.63-27.8z" fill="#fff" /><path data-name="Path 977" d="M310.779 133.472h-22.287l-4.418 8.389h-6.453l18.813-34.747h6.552l18.762 34.749h-6.5zm-2.631-5.063l-8.487-16.083-8.489 16.083z" fill="#fff" /><path data-name="Path 978" d="M362.728 136.598v5.265h-29.314v-34.749h5.956v29.484z" fill="#fff" /><path data-name="Path 979" d="M403.957 136.598v5.265h-29.314v-34.749h5.956v29.484z" fill="#fff" /><path data-name="Path 980" d="M452.181 131.586c0 6.6-6.5 11.317-18.316 11.317-8.141 0-15.338-2.382-20.749-7.049l3.723-4.218c4.715 4.218 10.274 6.1 17.273 6.1 7.743 0 12.013-2.035 12.013-5.659 0-3.573-4.369-4.516-13.1-5.261-9.58-.794-18.614-2.929-18.614-10.027 0-6.9 7.992-10.721 17.969-10.721 7.545 0 13.948 2.234 18.118 5.757l-3.773 4.071c-3.574-3.127-8.487-4.616-14.245-4.665-5.51-.051-12.062 1.29-12.062 5.162 0 3.672 5.807 4.317 13.4 4.913 10.818.849 18.363 3.032 18.363 10.28z" fill="#fff" /><path data-name="Path 981" d="M63.518 123.663l21.5-16.546h-7.871l-18.528 14.395h-.4v-14.397h-5.956v34.748h5.956V126.64h.4l19.776 15.221h8.517z" fill="#fff" /><path data-name="Path 982" d="M333.328 82.91v-2.857h-1.043v-.531h2.659v.531H333.9v2.857z" fill="#fff" /><path data-name="Path 983" d="M335.455 82.91v-3.388h.755l.906 2.687h.01l.879-2.687h.768v3.388h-.553v-2.527h-.009a7.058 7.058 0 01-.2.691l-.66 1.836h-.507l-.655-1.836a5.838 5.838 0 01-.206-.714h-.009v2.55z" fill="#fff" /><path data-name="Path 984" d="M455.05 141.175v-2.812h-1.027v-.523h2.616v.523h-1.026v2.808z" fill="#fff" /><path data-name="Path 985" d="M457.138 141.175v-3.331h.743l.89 2.643h.01l.864-2.643h.756v3.331h-.545v-2.485h-.008a6.759 6.759 0 01-.2.68l-.648 1.8h-.5l-.644-1.8a5.636 5.636 0 01-.2-.7h-.009v2.507z" fill="#fff" /><g data-name="Group 1283" fill="#fff"><path data-name="Path 986" d="M52.26 155.451h4.166c2.771 0 4.316 1.176 4.316 3.36a3.188 3.188 0 01-2.972 3.359l3.14 5.711h-1.343l-3.039-5.576h-3.09v5.576h-1.176zm4.082 5.8c2.048 0 3.208-.587 3.208-2.385 0-1.713-1.143-2.318-3.225-2.318h-2.889v4.7z" /><path data-name="Path 987" d="M62.334 163.447c0-3.141 2.016-4.586 3.88-4.586 2.067 0 3.612 1.579 3.612 4.6v.218h-6.332c.017 2.184 1.259 3.409 2.787 3.409a2.993 2.993 0 002.755-1.612l.722.571a3.9 3.9 0 01-3.544 2.016c-2.066 0-3.88-1.593-3.88-4.616zm6.366-.689c-.117-1.679-.923-2.922-2.5-2.922-1.277 0-2.469.923-2.687 2.922z" /><path data-name="Path 988" d="M71.92 159.029h1.16v1.259a3.944 3.944 0 012.956-1.427c2.032 0 3.644 1.495 3.644 4.586s-1.629 4.585-3.745 4.585a3.953 3.953 0 01-2.855-1.36v4.569h-1.16zm6.6 4.435c0-2.453-1.209-3.612-2.687-3.612a3.745 3.745 0 00-2.754 1.462v4.3a3.774 3.774 0 002.754 1.444c1.563.005 2.688-1.095 2.688-3.595z" /><path data-name="Path 989" d="M81.874 155.451h1.158v12.43h-1.158z" /><path data-name="Path 990" d="M85.1 165.815c0-1.746 1.495-3.024 6-3.712v-.454a1.6 1.6 0 00-1.8-1.813 4.809 4.809 0 00-3.308 1.394l-.622-.723a5.641 5.641 0 014.031-1.646 2.511 2.511 0 012.838 2.821v4.015a6.135 6.135 0 00.252 2.184h-1.192a3.945 3.945 0 01-.2-1.26 5.061 5.061 0 01-3.494 1.411c-1.577 0-2.505-.84-2.505-2.217zm6-.134v-2.755c-3.8.639-4.854 1.579-4.854 2.737 0 .924.62 1.412 1.612 1.412a4.616 4.616 0 003.239-1.394z" /><path data-name="Path 991" d="M94.217 163.463c0-3.176 1.965-4.6 3.947-4.6a3.492 3.492 0 013.393 2.419l-.991.436a2.492 2.492 0 00-2.436-1.864c-1.31 0-2.754.941-2.754 3.6 0 2.317 1.175 3.628 2.72 3.628 1.227 0 1.915-.571 2.537-1.882l.941.4a3.687 3.687 0 01-3.527 2.469c-2.033-.006-3.83-1.666-3.83-4.606z" /><path data-name="Path 992" d="M103.022 163.447c0-3.141 2.015-4.586 3.88-4.586 2.066 0 3.612 1.579 3.612 4.6v.218h-6.332c.016 2.184 1.259 3.409 2.787 3.409a2.993 2.993 0 002.755-1.612l.722.571a3.905 3.905 0 01-3.544 2.016c-2.066 0-3.88-1.593-3.88-4.616zm6.366-.689c-.117-1.679-.923-2.922-2.5-2.922-1.277 0-2.469.923-2.688 2.922z" /><path data-name="Path 993" d="M112.608 159.029h1.159v1.394a4.605 4.605 0 013.242-1.562 2.187 2.187 0 012.436 1.6 4.969 4.969 0 013.342-1.6 2.3 2.3 0 012.554 2.621v6.4h-1.16v-6.181c0-1.243-.42-1.848-1.663-1.848a4.32 4.32 0 00-2.956 1.545v6.484h-1.159v-6.181c0-1.243-.42-1.848-1.679-1.848a4.354 4.354 0 00-2.957 1.545v6.484h-1.159z" /><path data-name="Path 994" d="M127.408 163.447c0-3.141 2.015-4.586 3.88-4.586 2.067 0 3.612 1.579 3.612 4.6v.218h-6.332c.016 2.184 1.259 3.409 2.787 3.409a2.993 2.993 0 002.755-1.612l.722.571a3.905 3.905 0 01-3.544 2.016c-2.066 0-3.88-1.593-3.88-4.616zm6.366-.689c-.117-1.679-.923-2.922-2.5-2.922-1.277 0-2.469.923-2.688 2.922z" /><path data-name="Path 995" d="M136.994 159.029h1.159v1.394a4.853 4.853 0 013.375-1.56 2.37 2.37 0 012.637 2.621v6.4h-1.158v-6.181c0-1.243-.555-1.848-1.764-1.848a4.465 4.465 0 00-3.091 1.545v6.484h-1.159z" /><path data-name="Path 996" d="M147.228 165.815v-5.8h-1.547v-.991h1.547v-3.174h1.158v3.174h2.3v.991h-2.3v5.56c0 .94.3 1.444 1.394 1.444a3.083 3.083 0 00.924-.117v.992a7.177 7.177 0 01-1.142.1c-1.697.005-2.334-.651-2.334-2.179z" /><path data-name="Path 997" d="M156.799 155.451h1.546l4.166 10.885h.033l4.132-10.885h1.579v12.43h-1.192v-10.418h-.034c-.168.553-.47 1.376-.773 2.182l-3.225 8.231h-1.091l-3.226-8.231c-.3-.806-.5-1.326-.772-2.216h-.034v10.447h-1.109z" /><path data-name="Path 998" d="M170.611 163.463c0-2.957 1.831-4.6 4.014-4.6 2.167 0 4 1.646 4 4.6 0 2.939-1.831 4.6-4 4.6s-4.014-1.66-4.014-4.6zm6.853-.017c0-1.932-.974-3.6-2.839-3.6-1.8 0-2.855 1.511-2.855 3.6 0 1.964.957 3.628 2.855 3.628 1.781.001 2.839-1.494 2.839-3.627z" /><path data-name="Path 999" d="M179.516 159.029h1.243l2.62 7.475h.034l2.6-7.475h1.176l-3.258 8.885h-1.16z" /><path data-name="Path 1000" d="M188.911 155.736h1.226v1.244h-1.226zm.034 3.293h1.158v8.852h-1.158z" /><path data-name="Path 1001" d="M192.692 159.029h1.16v1.394a4.849 4.849 0 013.376-1.56 2.37 2.37 0 012.637 2.621v6.4h-1.158v-6.181c0-1.243-.554-1.848-1.764-1.848a4.461 4.461 0 00-3.09 1.545v6.484h-1.16z" /><path data-name="Path 1002" d="M201.403 169.057a2.208 2.208 0 011.63-2.015 1.128 1.128 0 01-.791-1.126c0-.537.438-.991 1.075-1.328a2.929 2.929 0 01-1.342-2.536 3.237 3.237 0 013.493-3.191 3.662 3.662 0 012.519.907 4.726 4.726 0 012.05-.807v1.093a4.146 4.146 0 00-1.612.3 2.761 2.761 0 01.52 1.7 3.175 3.175 0 01-3.477 3.141 3.9 3.9 0 01-1.428-.252c-.42.169-.706.421-.706.756 0 .371.32.571 1.311.672l1.931.151c2.05.169 3.125.875 3.125 2.251 0 1.613-1.68 2.5-4.1 2.5-2.873.001-4.198-.856-4.198-2.216zm7.223-.185c0-.84-.672-1.259-2.419-1.394l-1.764-.135c-.151-.016-.3-.034-.453-.049-.991.319-1.478.94-1.478 1.612 0 .924.974 1.462 3.208 1.462 1.814 0 2.908-.605 2.908-1.496zm-.772-6.8a2.149 2.149 0 00-2.386-2.285 2.177 2.177 0 00-2.369 2.285 2.169 2.169 0 002.385 2.235 2.156 2.156 0 002.37-2.238z" /><path data-name="Path 1003" d="M215.292 161.616c0-3.914 2.184-6.4 5.191-6.4 2.351 0 3.88 1.326 4.518 3.812l-1.142.269c-.587-2.049-1.545-2.991-3.393-2.991-2.15 0-3.981 1.765-3.981 5.258 0 3.477 1.63 5.477 4.015 5.477 2.082 0 3.46-1.462 3.443-3.981h-3.007v-1.025h4.166v5.845h-1.074v-1.9h-.033a3.783 3.783 0 01-3.6 2.134c-3.255.003-5.103-2.769-5.103-6.498z" /><path data-name="Path 1004" d="M227.834 155.451h1.159v12.43h-1.159z" /><path data-name="Path 1005" d="M231.059 165.815c0-1.746 1.495-3.024 6-3.712v-.454a1.6 1.6 0 00-1.8-1.813 4.809 4.809 0 00-3.308 1.394l-.622-.723a5.641 5.641 0 014.032-1.646 2.511 2.511 0 012.838 2.821v4.015a6.11 6.11 0 00.252 2.184h-1.192a3.945 3.945 0 01-.2-1.26 5.059 5.059 0 01-3.493 1.411c-1.582 0-2.507-.84-2.507-2.217zm6-.134v-2.755c-3.8.639-4.854 1.579-4.854 2.737 0 .924.621 1.412 1.612 1.412a4.616 4.616 0 003.239-1.394z" /><path data-name="Path 1006" d="M240.009 166.47l.739-.672a3.456 3.456 0 002.754 1.277c1.513 0 2.3-.555 2.3-1.545s-.706-1.36-2.435-1.764c-2.033-.505-3.075-1.042-3.075-2.587 0-1.26 1.092-2.318 3.007-2.318a4.357 4.357 0 013.276 1.276l-.656.774a3.528 3.528 0 00-2.586-1.093c-1.378 0-1.915.639-1.915 1.311 0 .857.605 1.209 2.15 1.579 2.217.537 3.36 1.075 3.36 2.8 0 1.613-1.445 2.537-3.444 2.537a4.245 4.245 0 01-3.475-1.575z" /><path data-name="Path 1007" d="M248.48 166.47l.74-.672a3.453 3.453 0 002.754 1.277c1.512 0 2.3-.555 2.3-1.545s-.706-1.36-2.435-1.764c-2.033-.505-3.075-1.042-3.075-2.587 0-1.26 1.092-2.318 3.007-2.318a4.355 4.355 0 013.276 1.276l-.656.774a3.528 3.528 0 00-2.586-1.093c-1.377 0-1.915.639-1.915 1.311 0 .857.6 1.209 2.15 1.579 2.217.537 3.36 1.075 3.36 2.8 0 1.613-1.445 2.537-3.444 2.537a4.245 4.245 0 01-3.476-1.575z" /><path data-name="Path 1008" d="M260.728 155.451h1.209l1.932 7.543c.3 1.142.571 2.267.756 3.123h.034c.167-.84.436-1.981.722-3.108l1.847-7.558h1.261l1.881 7.626c.285 1.125.537 2.1.7 3.04h.034c.218-.991.453-1.881.722-2.99l1.948-7.676h1.143l-3.293 12.43h-1.125l-2.637-10.784h-.034l-2.671 10.784h-1.129z" /><path data-name="Path 1009" d="M275.783 165.815c0-1.746 1.495-3.024 6-3.712v-.454a1.6 1.6 0 00-1.8-1.813 4.809 4.809 0 00-3.308 1.394l-.622-.723a5.641 5.641 0 014.032-1.646 2.511 2.511 0 012.838 2.821v4.015a6.11 6.11 0 00.252 2.184h-1.192a3.945 3.945 0 01-.2-1.26 5.059 5.059 0 01-3.493 1.411c-1.582 0-2.507-.84-2.507-2.217zm6-.134v-2.755c-3.8.639-4.854 1.579-4.854 2.737 0 .924.621 1.412 1.612 1.412a4.616 4.616 0 003.239-1.394z" /><path data-name="Path 1010" d="M285.479 155.451h1.159v12.43h-1.159z" /><path data-name="Path 1011" d="M289.272 155.451h1.158v12.43h-1.158z" /><path data-name="Path 1012" d="M292.361 166.47l.74-.672a3.453 3.453 0 002.754 1.277c1.512 0 2.3-.555 2.3-1.545s-.706-1.36-2.435-1.764c-2.033-.505-3.075-1.042-3.075-2.587 0-1.26 1.092-2.318 3.007-2.318a4.354 4.354 0 013.276 1.276l-.656.774a3.527 3.527 0 00-2.586-1.093c-1.377 0-1.915.639-1.915 1.311 0 .857.605 1.209 2.15 1.579 2.218.537 3.36 1.075 3.36 2.8 0 1.613-1.445 2.537-3.444 2.537a4.245 4.245 0 01-3.476-1.575z" /><path data-name="Path 1013" d="M304.738 165.815c0-1.746 1.495-3.024 6-3.712v-.454a1.6 1.6 0 00-1.8-1.813 4.809 4.809 0 00-3.308 1.394l-.622-.723a5.642 5.642 0 014.031-1.646 2.512 2.512 0 012.839 2.821v4.015a6.081 6.081 0 00.253 2.184h-1.193a3.945 3.945 0 01-.2-1.26 5.061 5.061 0 01-3.494 1.411c-1.581 0-2.506-.84-2.506-2.217zm6-.134v-2.755c-3.8.639-4.854 1.579-4.854 2.737 0 .924.621 1.412 1.612 1.412a4.616 4.616 0 003.239-1.394z" /><path data-name="Path 1014" d="M314.371 159.029h1.157v1.394a4.853 4.853 0 013.376-1.562 2.37 2.37 0 012.637 2.621v6.4h-1.158v-6.181c0-1.243-.555-1.848-1.765-1.848a4.465 4.465 0 00-3.09 1.545v6.484h-1.159z" /><path data-name="Path 1015" d="M323.621 163.463c0-3.091 1.63-4.6 3.746-4.6a3.914 3.914 0 012.855 1.378v-4.788h1.16v10.246a5.683 5.683 0 00.268 2.184h-1.222a4.5 4.5 0 01-.2-1.294 3.928 3.928 0 01-2.956 1.445c-2.038-.002-3.651-1.48-3.651-4.571zm6.6 2.133v-4.3a3.74 3.74 0 00-2.755-1.461c-1.562 0-2.687 1.141-2.687 3.644 0 2.436 1.21 3.562 2.687 3.562a3.73 3.73 0 002.756-1.444z" /><path data-name="Path 1016" d="M337.19 155.451h1.21l1.932 7.543c.3 1.142.571 2.267.755 3.123h.034c.168-.84.436-1.981.722-3.108l1.848-7.558h1.26l1.881 7.626c.286 1.125.538 2.1.705 3.04h.034c.218-.991.453-1.881.722-2.99l1.949-7.676h1.142l-3.292 12.43h-1.126l-2.637-10.784h-.033l-2.671 10.784h-1.126z" /><path data-name="Path 1017" d="M353.296 155.736h1.226v1.244h-1.226zm.034 3.293h1.158v8.852h-1.16z" /><path data-name="Path 1018" d="M357.078 159.029h1.159v1.394a4.851 4.851 0 013.376-1.562 2.37 2.37 0 012.637 2.621v6.4h-1.159v-6.181c0-1.243-.554-1.848-1.764-1.848a4.465 4.465 0 00-3.09 1.545v6.484h-1.159z" /><path data-name="Path 1019" d="M366.328 163.463c0-3.091 1.63-4.6 3.746-4.6a3.916 3.916 0 012.855 1.378v-4.788h1.159v10.246a5.678 5.678 0 00.269 2.184h-1.229a4.533 4.533 0 01-.2-1.294 3.928 3.928 0 01-2.956 1.445c-2.031-.002-3.644-1.48-3.644-4.571zm6.6 2.133v-4.3a3.741 3.741 0 00-2.755-1.461c-1.562 0-2.687 1.141-2.687 3.644 0 2.436 1.21 3.562 2.687 3.562a3.73 3.73 0 002.755-1.444z" /><path data-name="Path 1020" d="M376.16 163.463c0-2.957 1.831-4.6 4.015-4.6 2.166 0 4 1.646 4 4.6 0 2.939-1.831 4.6-4 4.6s-4.015-1.66-4.015-4.6zm6.853-.017c0-1.932-.974-3.6-2.838-3.6-1.8 0-2.856 1.511-2.856 3.6 0 1.964.957 3.628 2.856 3.628 1.78.001 2.838-1.494 2.838-3.627z" /><path data-name="Path 1021" d="M385.141 159.029h1.21l1.242 4.384c.32 1.126.521 1.864.824 3.007h.033c.32-1.261.487-1.881.807-3.007l1.209-4.384h1.062l1.225 4.468c.32 1.075.487 1.764.773 2.923h.034c.319-1.193.487-1.814.806-2.889l1.293-4.5h1.126l-2.722 8.852h-1.075l-2-7.274h-.034l-2.033 7.274h-1.058z" /><path data-name="Path 1022" d="M397.818 166.47l.74-.672a3.453 3.453 0 002.754 1.277c1.512 0 2.3-.555 2.3-1.545s-.707-1.36-2.436-1.764c-2.033-.505-3.074-1.042-3.074-2.587 0-1.26 1.091-2.318 3.006-2.318a4.354 4.354 0 013.276 1.276l-.655.774a3.531 3.531 0 00-2.587-1.093c-1.377 0-1.915.639-1.915 1.311 0 .857.605 1.209 2.15 1.579 2.218.537 3.36 1.075 3.36 2.8 0 1.613-1.445 2.537-3.444 2.537a4.245 4.245 0 01-3.475-1.575z" /></g><g data-name="Group 1291"><g data-name="Group 1289"><g data-name="Group 1288"><g data-name="Group 1284" fill="#fff"><path data-name="Path 1023" d="M209.495 221.844l.014.15-.152.048a4889.16 4889.16 0 01-8.665 12.422l8.172.061 3.7-1.192.006.022 4.889-1.575-4.711-14.624c-.559.807-1.748 2.523-3.253 4.688z" /><path data-name="Path 1024" d="M207.613 201.201l1.793 19.667 3.321-3.79z" /><path data-name="Path 1025" d="M205.082 193.363l-27.9 8.986 1.428 4.434 7.276-2.344 6.071 12.945-1.961-14.269 5.886-1.9 6.7 12.743-2.572-14.072 6.5-2.1-1.428-4.434" /><path data-name="Path 1026" d="M197.753 225.78l-6.629 2.135a2773.608 2773.608 0 01-4.508 6.444l3.637.027 11.2-12.779-2.562-4.848-1.979 2.848z" /><path data-name="Path 1027" d="M182.092 234.325l1.1.008 6.957-7.94-11.521-19.562-4.828 1.555 2.772 8.605 5.659 1.1 1.357 4.137-4.192 3.913z" /><path data-name="Path 1028" d="M207.991 222.482l-5.2 1.673-.905-1.712a3952.551 3952.551 0 01-8.353 11.968l3.976.029z" /><path data-name="Path 1029" d="M196.799 218.805l1.977-2.257-3.084-5.837z" /></g><g data-name="Group 1285" fill="#fff"><path data-name="Path 1030" d="M221.271 204.533l1.528 5.875c.334 1.289.645 2.483.86 3.677h.071c.263-1.17.645-2.412 1.027-3.654l1.887-5.9h1.767l1.791 5.779c.43 1.385.764 2.6 1.027 3.773h.072a34.741 34.741 0 01.883-3.749l1.648-5.8h2.078l-3.726 11.558h-1.91l-1.768-5.516a38.657 38.657 0 01-1.026-3.8h-.048a34.315 34.315 0 01-1.051 3.821l-1.863 5.492h-1.91l-3.487-11.558z" /><path data-name="Path 1031" d="M238.943 210.694a3.7 3.7 0 003.964 4.012 7.6 7.6 0 003.2-.6l.358 1.505a9.368 9.368 0 01-3.845.716c-3.558 0-5.683-2.34-5.683-5.827s2.053-6.233 5.421-6.233c3.773 0 4.776 3.319 4.776 5.445a7.881 7.881 0 01-.072.979zm6.161-1.5c.024-1.338-.549-3.415-2.913-3.415-2.126 0-3.057 1.958-3.224 3.415z" /><path data-name="Path 1032" d="M249.451 213.942a5.506 5.506 0 002.77.836c1.528 0 2.245-.765 2.245-1.72 0-1-.6-1.552-2.15-2.125-2.077-.741-3.056-1.887-3.056-3.272 0-1.862 1.5-3.391 3.988-3.391a5.772 5.772 0 012.842.716l-.526 1.529a4.49 4.49 0 00-2.364-.669c-1.242 0-1.935.717-1.935 1.576 0 .956.693 1.385 2.2 1.959 2.006.764 3.033 1.767 3.033 3.486 0 2.03-1.577 3.463-4.323 3.463a6.587 6.587 0 01-3.248-.788z" /><path data-name="Path 1033" d="M261.728 201.213v3.32h3.009v1.6h-3.009v6.23c0 1.433.406 2.244 1.576 2.244a4.667 4.667 0 001.218-.143l.1 1.577a5.146 5.146 0 01-1.862.286 2.908 2.908 0 01-2.269-.884 4.28 4.28 0 01-.812-3.009v-6.3h-1.791v-1.6h1.791v-2.771z" /><path data-name="Path 1034" d="M268.128 210.694a3.7 3.7 0 003.964 4.012 7.6 7.6 0 003.2-.6l.358 1.505a9.366 9.366 0 01-3.844.716c-3.559 0-5.684-2.34-5.684-5.827s2.054-6.233 5.421-6.233c3.773 0 4.776 3.319 4.776 5.445a7.887 7.887 0 01-.072.979zm6.161-1.5c.024-1.338-.549-3.415-2.913-3.415-2.126 0-3.057 1.958-3.224 3.415z" /><path data-name="Path 1035" d="M278.92 208.139c0-1.361-.024-2.532-.1-3.606h1.839l.071 2.268h.1a3.467 3.467 0 013.2-2.531 2.266 2.266 0 01.6.072v1.982a3.145 3.145 0 00-.717-.072 2.948 2.948 0 00-2.817 2.7 5.881 5.881 0 00-.1.979v6.161h-2.078z" /><path data-name="Path 1036" d="M286.828 207.663c0-1.194-.024-2.173-.1-3.128h1.863l.12 1.91h.047a4.252 4.252 0 013.821-2.173c1.6 0 4.084.955 4.084 4.92v6.9h-2.1v-6.663c0-1.862-.692-3.415-2.674-3.415a2.984 2.984 0 00-2.818 2.15 3.006 3.006 0 00-.144.979v6.949h-2.1z" /></g><g data-name="Group 1286" fill="#fff"><path data-name="Path 1037" d="M221.655 220.241l.714 2.746c.156.6.3 1.161.4 1.719h.033c.123-.547.3-1.127.48-1.708l.882-2.757h.826l.838 2.7c.2.648.357 1.217.479 1.764h.034a16.051 16.051 0 01.413-1.752l.77-2.713h.972l-1.742 5.4h-.893l-.826-2.579a17.853 17.853 0 01-.48-1.775h-.022a15.891 15.891 0 01-.492 1.786l-.87 2.568h-.893l-1.63-5.4z" /><path data-name="Path 1038" d="M230.573 218.723a.58.58 0 01-.625.6.585.585 0 01-.592-.6.6.6 0 01.614-.614.583.583 0 01.603.614zm-1.094 6.921v-5.4h.983v5.4z" /><path data-name="Path 1039" d="M232.091 221.703c0-.558-.011-1.016-.045-1.462h.871l.056.893h.022a1.988 1.988 0 011.786-1.016c.748 0 1.909.447 1.909 2.3v3.226h-.982v-3.115c0-.87-.324-1.6-1.25-1.6a1.4 1.4 0 00-1.317 1 1.4 1.4 0 00-.068.457v3.249h-.982z" /><path data-name="Path 1040" d="M242.952 217.718v6.531c0 .48.011 1.026.045 1.4h-.882l-.045-.938h-.022a2 2 0 01-1.842 1.061 2.463 2.463 0 01-2.311-2.746c-.011-1.8 1.106-2.9 2.423-2.9a1.805 1.805 0 011.629.826h.023v-3.226zm-.982 4.722a1.708 1.708 0 00-.045-.413 1.444 1.444 0 00-1.418-1.138c-1.015 0-1.618.893-1.618 2.087 0 1.094.536 2 1.6 2a1.476 1.476 0 001.44-1.172 1.682 1.682 0 00.045-.424z" /><path data-name="Path 1041" d="M249.471 222.898a2.641 2.641 0 01-2.69 2.869 2.569 2.569 0 01-2.59-2.78 2.638 2.638 0 012.679-2.869 2.559 2.559 0 012.601 2.78zm-4.287.056c0 1.183.681 2.076 1.641 2.076.938 0 1.641-.882 1.641-2.1 0-.915-.457-2.076-1.618-2.076s-1.664 1.073-1.664 2.1z" /><path data-name="Path 1042" d="M251.022 220.241l.715 2.746c.156.6.3 1.161.4 1.719h.033c.123-.547.3-1.127.48-1.708l.882-2.757h.826l.837 2.7c.2.648.357 1.217.48 1.764h.034a16.05 16.05 0 01.413-1.752l.77-2.713h.971l-1.741 5.4h-.893l-.826-2.579a17.844 17.844 0 01-.48-1.775h-.023a15.886 15.886 0 01-.491 1.786l-.871 2.568h-.893l-1.63-5.4z" /><path data-name="Path 1043" d="M261.079 224.639a2.576 2.576 0 001.3.391c.715 0 1.05-.357 1.05-.8 0-.469-.279-.725-1.005-.993-.971-.346-1.429-.882-1.429-1.53a1.666 1.666 0 011.864-1.585 2.7 2.7 0 011.329.335l-.246.715a2.1 2.1 0 00-1.105-.313c-.58 0-.9.335-.9.737 0 .446.324.647 1.027.915.937.357 1.418.826 1.418 1.63 0 .949-.737 1.619-2.021 1.619a3.07 3.07 0 01-1.518-.369z" /><path data-name="Path 1044" d="M265.991 220.241l1.183 3.193c.123.357.257.781.346 1.105h.022c.1-.324.213-.737.346-1.128l1.072-3.17h1.038l-1.47 3.851a8.251 8.251 0 01-1.853 3.383 2.67 2.67 0 01-1.206.636l-.246-.826a2.584 2.584 0 00.86-.48 2.976 2.976 0 00.826-1.094.7.7 0 00.078-.234.847.847 0 00-.067-.257l-2-4.979z" /><path data-name="Path 1045" d="M270.69 224.639a2.572 2.572 0 001.3.391c.714 0 1.049-.357 1.049-.8 0-.469-.279-.725-1.005-.993-.971-.346-1.428-.882-1.428-1.53a1.666 1.666 0 011.864-1.585 2.689 2.689 0 011.328.335l-.245.715a2.1 2.1 0 00-1.1-.313c-.581 0-.9.335-.9.737 0 .446.324.647 1.027.915.938.357 1.418.826 1.418 1.63 0 .949-.737 1.619-2.02 1.619a3.077 3.077 0 01-1.519-.369z" /><path data-name="Path 1046" d="M276.428 218.689v1.552h1.406v.748h-1.406v2.914c0 .669.189 1.049.736 1.049a2.213 2.213 0 00.57-.067l.044.737a2.408 2.408 0 01-.871.134 1.362 1.362 0 01-1.06-.413 2 2 0 01-.38-1.407v-2.947h-.837v-.748h.837v-1.295z" /><path data-name="Path 1047" d="M279.419 223.121a1.73 1.73 0 001.853 1.875 3.563 3.563 0 001.5-.278l.167.7a4.377 4.377 0 01-1.8.335 2.509 2.509 0 01-2.657-2.724 2.623 2.623 0 012.534-2.914 2.289 2.289 0 012.233 2.545 3.716 3.716 0 01-.034.458zm2.88-.7a1.4 1.4 0 00-1.362-1.6 1.628 1.628 0 00-1.507 1.6z" /><path data-name="Path 1048" d="M284.464 221.703c0-.558-.011-1.016-.045-1.462h.86l.045.871h.033a1.862 1.862 0 011.7-.994 1.6 1.6 0 011.529 1.083h.023a2.22 2.22 0 01.6-.7 1.843 1.843 0 011.2-.38c.714 0 1.775.469 1.775 2.345v3.181h-.96v-3.059c0-1.038-.38-1.663-1.172-1.663a1.27 1.27 0 00-1.161.893 1.6 1.6 0 00-.079.491v3.338h-.96v-3.237c0-.86-.379-1.485-1.127-1.485a1.342 1.342 0 00-1.217.982 1.351 1.351 0 00-.078.48v3.26h-.96z" /><path data-name="Path 1049" d="M293.64 224.639a2.569 2.569 0 001.294.391c.715 0 1.05-.357 1.05-.8 0-.469-.279-.725-1.005-.993-.971-.346-1.429-.882-1.429-1.53a1.666 1.666 0 011.864-1.585 2.7 2.7 0 011.329.335l-.246.715a2.1 2.1 0 00-1.1-.313c-.58 0-.9.335-.9.737 0 .446.324.647 1.027.915.937.357 1.418.826 1.418 1.63 0 .949-.737 1.619-2.021 1.619a3.076 3.076 0 01-1.518-.369z" /></g><g data-name="Group 1287"><path data-name="Path 1050" d="M303.028 206.553a2.1 2.1 0 01-2.144 2.118 2.121 2.121 0 01-2.155-2.118 2.115 2.115 0 012.155-2.092 2.1 2.1 0 012.144 2.092zm-3.764 0a1.621 1.621 0 001.633 1.671 1.6 1.6 0 001.6-1.658 1.619 1.619 0 00-1.608-1.684 1.626 1.626 0 00-1.623 1.671zm1.289 1.1h-.485v-2.09a4.251 4.251 0 01.8-.064 1.306 1.306 0 01.727.153.581.581 0 01.2.46.536.536 0 01-.434.484v.026a.617.617 0 01.383.51 1.6 1.6 0 00.153.523h-.523a1.786 1.786 0 01-.166-.51c-.038-.23-.166-.332-.434-.332h-.229zm.013-1.186h.229c.268 0 .485-.09.485-.306 0-.192-.14-.319-.447-.319a1.149 1.149 0 00-.267.025z" fill="#fff" /></g></g></g><g data-name="Group 1290" fill="#fff"><path data-name="Path 1051" d="M159.077 224.153v.792h-.76v-8.141h.76v3.19a2.527 2.527 0 011.935-.957c1.331 0 2.388.979 2.388 3s-1.068 3-2.453 3a2.589 2.589 0 01-1.87-.884zm3.564-2.1c0-1.6-.792-2.365-1.761-2.365a2.45 2.45 0 00-1.8.957v2.818a2.47 2.47 0 001.8.947c1.024-.004 1.761-.719 1.761-2.359z" /><path data-name="Path 1052" d="M163.817 227.046l.176-.627a3.1 3.1 0 00.8.088 1.151 1.151 0 001.188-.891l.242-.638-2.244-5.831h.814l1.8 4.895h.022l1.793-4.895h.792l-2.5 6.469c-.385 1.034-.825 1.551-1.936 1.551a3.273 3.273 0 01-.947-.121z" /></g></g></svg>