<?xml version="1.0" encoding="UTF-8" standalone="no"?>
<svg
   xmlns:dc="http://purl.org/dc/elements/1.1/"
   xmlns:cc="http://creativecommons.org/ns#"
   xmlns:rdf="http://www.w3.org/1999/02/22-rdf-syntax-ns#"
   xmlns:svg="http://www.w3.org/2000/svg"
   xmlns="http://www.w3.org/2000/svg"
   id="Layer_1"
   version="1.1"
   width="242.67999"
   height="84.260002">
  <metadata
     id="metadata21">
    <rdf:RDF>
      <cc:Work
         rdf:about="">
        <dc:format>image/svg+xml</dc:format>
        <dc:type
           rdf:resource="http://purl.org/dc/dcmitype/StillImage" />
        <dc:title></dc:title>
      </cc:Work>
    </rdf:RDF>
  </metadata>
  <defs
     id="defs3804">
    <style
       id="style3802">.cls-4{fill:#004876}</style>
  </defs>
  <path
     style="fill:#c7e1f3"
     d="M 22.81,28.07 H 167.68 V 81.29 H 22.81 Z"
     id="path3806" />
  <path
     style="fill:#97caeb"
     d="m 125.79,78.87 h 39.83 v -4.69 c -16.23,0 -39.83,4.69 -39.83,4.69 z m -23.27,0 c 0,0 -7.71,-4.25 -11.79,-4.25 -4.9,0 -6,1.16 -12,1.16 -4.32,0 -7.33,-3.82 -13.14,-3.82 -5.11,0 -6.33,2.95 -15.64,2.95 -11.74,0 -9.78,-6.92 -22.95,-6.92 h -2.44 v 10.83 z"
     id="path3808" />
  <path
     style="fill:#ffffff"
     d="m 32.55,54.68 h 92.34 c 0,0 -5.53,-4.17 -9.52,-4.17 -3.99,0 -4.89,1.58 -7.25,1.58 -3.54,0 -6.29,-10.1 -15.53,-10.1 -14.58,0 -22.3,9.08 -29.54,9.08 -4.58,0 -5.67,-2.4 -9.29,-2.4 -7.61,0 -21.21,6.01 -21.21,6.01 z m 98.35,-8.17 h 25.14 c 0,0 -3,-3.86 -9.46,-3.86 -6.46,0 -15.68,3.86 -15.68,3.86 z"
     id="path3810" />
  <path
     style="fill:#004876"
     class="cls-4"
     d="M 242.68,11.72 166.62,0.07 166.17,0 122.37,6.71 95.71,2.62 95.26,2.55 0,17.14 0.89,22.95 95.26,8.49 l 94.38,14.46 0.89,-5.81 -48.77,-7.47 24.41,-3.73 51,7.81 v 64.6 h -46.2 V 25.07 L 21.27,25.13 H 19.96 V 84.26 H 223.04 V 14.65 l 18.75,2.87 z M 53,31 H 79.63 V 78.35 H 53 Z M 50.68,78.35 H 25.82 V 31 H 50.68 Z M 81.95,31 h 26.63 V 78.35 H 81.95 Z m 28.95,0 h 26.62 V 78.35 H 110.9 Z m 28.95,0 h 24.46 v 47.35 h -24.46 z"
     id="path3812" />
</svg>
