<svg xmlns="http://www.w3.org/2000/svg" height="142.9" width="460.39" version="1.1" id="Layer_1"><defs id="defs3804"><style id="style3802">.cls-4{fill:#004876}</style></defs><path id="path3806" d="M127.56 28.07h144.87v53.22H127.56z" fill="#c7e1f3"/><path id="path3808" d="M230.54 78.87h39.83v-4.69c-16.23 0-39.83 4.69-39.83 4.69zm-23.27 0s-7.71-4.25-11.79-4.25c-4.9 0-6 1.16-12 1.16-4.32 0-7.33-3.82-13.14-3.82-5.11 0-6.33 2.95-15.64 2.95-11.74 0-9.78-6.92-22.95-6.92h-2.44v10.83z" fill="#97caeb"/><path id="path3810" d="M137.3 54.68h92.34s-5.53-4.17-9.52-4.17c-3.99 0-4.89 1.58-7.25 1.58-3.54 0-6.29-10.1-15.53-10.1-14.58 0-22.3 9.08-29.54 9.08-4.58 0-5.67-2.4-9.29-2.4-7.61 0-21.21 6.01-21.21 6.01zm98.35-8.17h25.14s-3-3.86-9.46-3.86c-6.46 0-15.68 3.86-15.68 3.86z" fill="#fff"/><path id="path3812" d="M347.43 11.72L271.37.07l-.45-.07-43.8 6.71-26.66-4.09-.45-.07-95.26 14.59.89 5.81 94.37-14.46 94.38 14.46.89-5.81-48.77-7.47 24.41-3.73 51 7.81v64.6h-46.2V25.07l-149.7.06h-1.31v59.13h203.08V14.65l18.75 2.87zM157.75 31h26.63v47.35h-26.63zm-2.32 47.35h-24.86V31h24.86zM186.7 31h26.63v47.35H186.7zm28.95 0h26.62v47.35h-26.62zm28.95 0h24.46v47.35H244.6zM39.06 131.58c0 6.6-6.5 11.32-18.31 11.32-8.14 0-15.34-2.38-20.75-7.05l3.72-4.22c4.72 4.22 10.28 6.11 17.28 6.11 7.74 0 12-2 12-5.66s-4.37-4.52-13.11-5.26c-9.58-.8-18.61-2.93-18.61-10 0-6.9 8-10.72 18-10.72 7.54 0 13.95 2.23 18.12 5.76l-3.78 4.07c-3.57-3.13-8.48-4.62-14.24-4.67-5.51-.05-12.06 1.29-12.06 5.16 0 3.68 5.8 4.32 13.4 4.92 10.8.81 18.34 3 18.34 10.24zm61.86-24.47l13.28 17.62 13.15-17.62h6.85l-17.07 22.74v12h-6v-12l-17.12-22.74zm79.54 29.54v5.21h-34.6v-34.75h34.1v5.21h-28.19v9.29h23.73v5.21h-23.73v9.83zm94.39-29.54l-12.71 34.75h-6.16l-10.22-28.05-10.28 28.05h-6.1l-12.76-34.75h6.35l9.58 27.8 10.33-27.8h5.86l10.27 27.8 9.63-27.8zm35.93 26.36h-22.29l-4.42 8.39h-6.45l18.81-34.75h6.56l18.76 34.75h-6.5zm-2.58-5.06l-8.49-16.09-8.51 16.09zm54.52 8.19v5.26h-29.31v-34.75h6v29.49zm41.24 0v5.26h-29.32v-34.75h6v29.49zm48.24-5.02c0 6.6-6.5 11.32-18.32 11.32-8.14 0-15.33-2.38-20.74-7.05l3.72-4.22c4.71 4.22 10.27 6.11 17.27 6.11 7.74 0 12-2 12-5.66s-4.36-4.52-13.1-5.26c-9.58-.8-18.61-2.93-18.61-10 0-6.9 8-10.72 18-10.72 7.55 0 14 2.23 18.12 5.76l-3.77 4.07c-3.57-3.16-8.57-4.67-14.3-4.67-5.51-.05-12.06 1.29-12.06 5.16 0 3.68 5.81 4.32 13.4 4.92 10.83.81 18.39 3 18.39 10.24z" class="cls-4" fill="#004876"/><path id="path3814" d="M63.52 123.66l21.5-16.55h-7.88l-18.52 14.4h-.4v-14.4h-5.96v34.75h5.96v-15.22h.4l19.77 15.22h8.52z" class="cls-4" fill="#004876"/><path id="path3816" d="M333.33 82.91v-2.86h-1.05v-.53h2.66v.53h-1v2.86zm2.12 0v-3.39h.75l.91 2.69.87-2.69h.77v3.39h-.55v-2.53c-.054.233-.12.464-.2.69l-.66 1.84h-.51l-.65-1.84c-.09-.23-.16-.468-.21-.71v2.55zm119.6 58.26v-2.81h-1v-.52h2.62v.52h-1v2.81zm2.09 0v-3.33h.74l.89 2.64.86-2.64h.76v3.33h-.54v-2.48c-.054.23-.12.457-.2.68l-.65 1.8h-.5l-.64-1.8a8.012 8.012 0 01-.21-.71v2.51z" class="cls-4" fill="#004876"/></svg>