<svg id="Layer_1" xmlns="http://www.w3.org/2000/svg" viewBox="0 0 460.4 234.53"><defs><style>.cls-2{fill:#97caeb}.cls-3{fill:#fff}.cls-4{fill:#004876}.cls-5{fill:#c62032}.cls-6{fill:#585b5c}.cls-7{fill:#231f20}</style></defs><path fill="#c7e1f3" d="M127.56 28.07h144.87v53.22H127.56z"/><path class="cls-2" d="M396.34 267.61h39.83v-4.69c-16.23 0-39.83 4.69-39.83 4.69zM373.07 267.61s-7.71-4.25-11.79-4.25c-4.9 0-6 1.16-12 1.16-4.32 0-7.33-3.82-13.14-3.82-5.11 0-6.33 2.95-15.64 2.95-11.74 0-9.78-6.92-22.95-6.92h-2.44v10.83z" transform="translate(-165.8 -188.74)"/><path class="cls-3" d="M303.1 243.42h92.34s-5.53-4.17-9.52-4.17-4.89 1.58-7.25 1.58c-3.54 0-6.29-10.1-15.53-10.1-14.58 0-22.3 9.08-29.54 9.08-4.58 0-5.67-2.4-9.29-2.4-7.61 0-21.21 6.01-21.21 6.01zM401.45 235.25h25.14s-3-3.86-9.46-3.86-15.68 3.86-15.68 3.86z" transform="translate(-165.8 -188.74)"/><path class="cls-4" d="M513.23 200.46l-76.06-11.65-.45-.07-43.8 6.71-26.66-4.09-.45-.07-95.26 14.59.89 5.81 94.37-14.46 94.38 14.46.89-5.81-48.77-7.47 24.41-3.73 51 7.81v64.6h-46.2v-53.28l-149.7.06h-1.31V273h203.08v-69.61l18.75 2.87zm-189.68 19.28h26.63v47.35h-26.63zm-2.32 47.35h-24.86v-47.35h24.86zm31.27-47.35h26.63v47.35H352.5zm28.95 0h26.62v47.35h-26.62zm28.95 0h24.46v47.35H410.4zM204.86 320.32c0 6.6-6.5 11.32-18.31 11.32-8.14 0-15.34-2.38-20.75-7.05l3.72-4.22c4.72 4.22 10.28 6.11 17.28 6.11 7.74 0 12-2 12-5.66s-4.37-4.52-13.11-5.26c-9.58-.8-18.61-2.93-18.61-10 0-6.9 8-10.72 18-10.72 7.54 0 13.95 2.23 18.12 5.76l-3.78 4.07c-3.57-3.13-8.48-4.62-14.24-4.67-5.51-.05-12.06 1.29-12.06 5.16 0 3.68 5.8 4.32 13.4 4.92 10.8.81 18.34 3 18.34 10.24zM266.72 295.85L280 313.47l13.15-17.62H300l-17.07 22.74v12h-6v-12l-17.12-22.74zM346.26 325.39v5.21h-34.6v-34.75h34.1v5.21h-28.19v9.29h23.73v5.21h-23.73v9.83zM440.65 295.85l-12.71 34.75h-6.16l-10.22-28.05-10.28 28.05h-6.1l-12.76-34.75h6.35l9.58 27.8 10.33-27.8h5.86l10.27 27.8 9.63-27.8zM476.58 322.21h-22.29l-4.42 8.39h-6.45l18.81-34.75h6.56l18.76 34.75h-6.5zm-2.58-5.06l-8.49-16.09-8.51 16.09zM528.52 325.34v5.26h-29.31v-34.75h6v29.49zM569.76 325.34v5.26h-29.32v-34.75h6v29.49zM618 320.32c0 6.6-6.5 11.32-18.32 11.32-8.14 0-15.33-2.38-20.74-7.05l3.72-4.22c4.71 4.22 10.27 6.11 17.27 6.11 7.74 0 12-2 12-5.66s-4.36-4.52-13.1-5.26c-9.58-.8-18.61-2.93-18.61-10 0-6.9 8-10.72 18-10.72 7.55 0 14 2.23 18.12 5.76l-3.77 4.07C609 301.51 604 300 598.27 300c-5.51-.05-12.06 1.29-12.06 5.16 0 3.68 5.81 4.32 13.4 4.92 10.83.81 18.39 3 18.39 10.24z" transform="translate(-165.8 -188.74)"/><path class="cls-4" d="M63.52 123.66l21.5-16.55h-7.88l-18.52 14.4h-.4v-14.4h-5.96v34.75h5.96v-15.22h.4l19.77 15.22h8.52l-23.39-18.2z"/><path class="cls-4" d="M499.13 271.65v-2.86h-1.05v-.53h2.66v.53h-1v2.86zM501.25 271.65v-3.39h.75l.91 2.69.87-2.69h.77v3.39H504v-2.53a6.61 6.61 0 01-.2.69l-.66 1.84h-.51l-.65-1.84a4.35 4.35 0 01-.21-.71v2.55zM620.85 329.91v-2.81h-1v-.52h2.62v.52h-1v2.81zM622.94 329.91v-3.33h.74l.89 2.64.86-2.64h.76v3.33h-.54v-2.48a6.45 6.45 0 01-.2.68l-.65 1.8h-.5l-.64-1.8a8.01 8.01 0 01-.21-.71v2.51zM218.06 344.19h4.17c2.77 0 4.31 1.17 4.31 3.36a3.19 3.19 0 01-3 3.36l3.14 5.71h-1.34l-3-5.58h-3.09v5.58h-1.18zm4.08 5.79c2.05 0 3.21-.58 3.21-2.38s-1.14-2.32-3.23-2.32h-2.88V350zM228.13 352.18c0-3.14 2-4.58 3.88-4.58 2.07 0 3.62 1.58 3.62 4.6v.22h-6.34c0 2.18 1.26 3.41 2.79 3.41a3 3 0 002.76-1.61l.72.57a3.91 3.91 0 01-3.55 2c-2.01.01-3.88-1.58-3.88-4.61zm6.37-.69c-.12-1.67-.92-2.92-2.5-2.92-1.28 0-2.47.93-2.69 2.92zM237.72 347.77h1.16V349a3.93 3.93 0 013-1.43c2 0 3.64 1.49 3.64 4.58s-1.63 4.59-3.75 4.59a3.93 3.93 0 01-2.85-1.36V360h-1.16zm6.6 4.43c0-2.45-1.21-3.61-2.69-3.61a3.74 3.74 0 00-2.75 1.46v4.3a3.78 3.78 0 002.75 1.44c1.57 0 2.69-1.09 2.69-3.59zM247.67 344.19h1.16v12.43h-1.16zM250.9 354.55c0-1.74 1.49-3 6-3.71v-.45a1.61 1.61 0 00-1.8-1.82 4.81 4.81 0 00-3.31 1.4l-.62-.73a5.65 5.65 0 014-1.64 2.51 2.51 0 012.84 2.82v4a6.28 6.28 0 00.25 2.19h-1.16a3.92 3.92 0 01-.2-1.26 5.1 5.1 0 01-3.5 1.41c-1.58.01-2.5-.83-2.5-2.21zm6-.13v-2.76c-3.8.64-4.86 1.58-4.86 2.74 0 .92.62 1.41 1.61 1.41a4.64 4.64 0 003.25-1.39zM260 352.2c0-3.17 2-4.6 3.94-4.6a3.5 3.5 0 013.4 2.42l-1 .43a2.5 2.5 0 00-2.44-1.86c-1.31 0-2.75.94-2.75 3.59 0 2.32 1.17 3.63 2.72 3.63 1.22 0 1.91-.57 2.53-1.88l.94.4a3.67 3.67 0 01-3.52 2.47c-2.01 0-3.82-1.66-3.82-4.6zM268.82 352.18c0-3.14 2-4.58 3.88-4.58 2.07 0 3.61 1.58 3.61 4.6v.22H270c0 2.18 1.26 3.41 2.79 3.41a3 3 0 002.75-1.61l.73.57a3.93 3.93 0 01-3.55 2c-2.08.01-3.9-1.58-3.9-4.61zm6.37-.69c-.12-1.67-.93-2.92-2.5-2.92-1.28 0-2.47.93-2.69 2.92zM278.41 347.77h1.16v1.39a4.6 4.6 0 013.24-1.56 2.17 2.17 0 012.43 1.59 5 5 0 013.35-1.59 2.3 2.3 0 012.55 2.62v6.4H290v-6.18c0-1.25-.42-1.85-1.66-1.85a4.34 4.34 0 00-3 1.54v6.49h-1.14v-6.18c0-1.25-.42-1.85-1.68-1.85a4.36 4.36 0 00-2.95 1.54v6.49h-1.16zM293.21 352.18c0-3.14 2-4.58 3.88-4.58 2.06 0 3.61 1.58 3.61 4.6v.22h-6.33c0 2.18 1.26 3.41 2.78 3.41a3 3 0 002.76-1.61l.72.57a3.9 3.9 0 01-3.54 2c-2.09.01-3.88-1.58-3.88-4.61zm6.36-.69c-.11-1.67-.92-2.92-2.5-2.92-1.28 0-2.47.93-2.69 2.92zM302.79 347.77H304v1.39a4.85 4.85 0 013.38-1.56 2.37 2.37 0 012.64 2.62v6.4h-1.16v-6.18c0-1.25-.56-1.85-1.77-1.85a4.49 4.49 0 00-3.09 1.54v6.49h-1.16zM313 354.55v-5.79h-1.55v-1H313v-3.18h1.16v3.18h2.3v1h-2.3v5.56c0 .94.3 1.44 1.39 1.44a2.85 2.85 0 00.92-.12v1a6.89 6.89 0 01-1.14.1c-1.67 0-2.33-.66-2.33-2.19zM322.6 344.19h1.54l4.17 10.88 4.14-10.88h1.57v12.43h-1.19V346.2c-.17.56-.47 1.38-.77 2.19l-3.23 8.23h-1.09l-3.23-8.23c-.3-.81-.5-1.33-.77-2.22v10.45h-1.14zM336.41 352.2c0-3 1.83-4.6 4-4.6s4 1.64 4 4.6-1.83 4.6-4 4.6-4-1.66-4-4.6zm6.85 0c0-1.93-1-3.59-2.84-3.59s-2.85 1.51-2.85 3.59 1 3.63 2.85 3.63 2.84-1.51 2.84-3.65zM345.31 347.77h1.25l2.62 7.47 2.61-7.47H353l-3.26 8.88h-1.16zM354.71 344.47h1.23v1.25h-1.23zm0 3.3h1.16v8.85h-1.16zM358.49 347.77h1.16v1.39a4.85 4.85 0 013.35-1.56 2.37 2.37 0 012.63 2.62v6.4h-1.15v-6.18c0-1.25-.56-1.85-1.77-1.85a4.49 4.49 0 00-3.09 1.54v6.49h-1.16zM367.2 357.79a2.21 2.21 0 011.63-2 1.13 1.13 0 01-.79-1.13c0-.53.44-1 1.08-1.32a2.94 2.94 0 01-1.35-2.54 3.24 3.24 0 013.5-3.19 3.63 3.63 0 012.52.91 4.59 4.59 0 012-.81v1.09a4.19 4.19 0 00-1.62.3 2.75 2.75 0 01.52 1.7 3.17 3.17 0 01-3.47 3.14 3.91 3.91 0 01-1.43-.25c-.42.17-.71.42-.71.75s.32.58 1.31.68l1.94.15c2.05.17 3.12.87 3.12 2.25 0 1.61-1.68 2.5-4.1 2.5-2.82-.02-4.15-.87-4.15-2.23zm7.23-.18c0-.84-.68-1.26-2.42-1.39l-1.77-.14-.45-.05c-1 .32-1.48.94-1.48 1.61 0 .93 1 1.46 3.21 1.46 1.81 0 2.91-.6 2.91-1.49zm-.78-6.8a2.15 2.15 0 00-2.38-2.29 2.26 2.26 0 100 4.52 2.15 2.15 0 002.38-2.23zM381.09 350.35c0-3.91 2.19-6.4 5.19-6.4 2.35 0 3.88 1.33 4.52 3.82l-1.14.27c-.59-2.05-1.55-3-3.39-3-2.15 0-4 1.77-4 5.26s1.63 5.48 4 5.48c2.08 0 3.46-1.46 3.44-4h-3v-1h4.16v5.85h-1.07v-1.9a3.78 3.78 0 01-3.59 2.13c-3.27-.01-5.12-2.78-5.12-6.51zM393.63 344.19h1.16v12.43h-1.16zM396.86 354.55c0-1.74 1.49-3 6-3.71v-.45a1.61 1.61 0 00-1.8-1.82 4.79 4.79 0 00-3.31 1.4l-.62-.73a5.65 5.65 0 014-1.64 2.51 2.51 0 012.84 2.82v4a6 6 0 00.25 2.19h-1.19a3.92 3.92 0 01-.2-1.26 5.1 5.1 0 01-3.5 1.41c-1.55.01-2.47-.83-2.47-2.21zm6-.13v-2.76c-3.8.64-4.86 1.58-4.86 2.74 0 .92.62 1.41 1.61 1.41a4.64 4.64 0 003.25-1.39zM405.81 355.21l.74-.67a3.46 3.46 0 002.75 1.27c1.51 0 2.3-.55 2.3-1.54s-.7-1.36-2.43-1.77c-2-.5-3.08-1-3.08-2.58 0-1.26 1.1-2.32 3-2.32a4.37 4.37 0 013.28 1.27l-.66.78a3.53 3.53 0 00-2.59-1.09c-1.37 0-1.91.63-1.91 1.31 0 .85.6 1.21 2.15 1.57 2.22.54 3.36 1.08 3.36 2.81s-1.45 2.54-3.44 2.54a4.27 4.27 0 01-3.47-1.58zM414.28 355.21l.74-.67a3.46 3.46 0 002.75 1.27c1.52 0 2.3-.55 2.3-1.54s-.7-1.36-2.43-1.77c-2-.5-3.08-1-3.08-2.58 0-1.26 1.1-2.32 3-2.32a4.37 4.37 0 013.28 1.27l-.66.78a3.53 3.53 0 00-2.58-1.09c-1.38 0-1.92.63-1.92 1.31 0 .85.61 1.21 2.15 1.57 2.22.54 3.36 1.08 3.36 2.81s-1.44 2.54-3.44 2.54a4.27 4.27 0 01-3.47-1.58zM426.52 344.19h1.21l1.93 7.54c.31 1.14.57 2.27.76 3.12.17-.84.44-2 .72-3.1l1.85-7.56h1.26l1.88 7.62c.29 1.13.54 2.1.71 3 .22-1 .46-1.88.73-3l1.94-7.67h1.15l-3.3 12.43h-1.06l-2.64-10.79-2.66 10.84h-1.13zM441.58 354.55c0-1.74 1.5-3 6-3.71v-.45a1.61 1.61 0 00-1.8-1.82 4.82 4.82 0 00-3.31 1.4l-.62-.73a5.67 5.67 0 014-1.64 2.51 2.51 0 012.84 2.82v4a6.28 6.28 0 00.25 2.19h-1.19a3.92 3.92 0 01-.2-1.26 5.07 5.07 0 01-3.49 1.41c-1.55.01-2.48-.83-2.48-2.21zm6-.13v-2.76c-3.8.64-4.85 1.58-4.85 2.74 0 .92.62 1.41 1.61 1.41a4.63 4.63 0 003.24-1.39zM451.28 344.19h1.16v12.43h-1.16zM455.07 344.19h1.16v12.43h-1.16zM458.16 355.21l.74-.67a3.46 3.46 0 002.75 1.27c1.52 0 2.31-.55 2.31-1.54s-.71-1.36-2.44-1.77c-2-.5-3.07-1-3.07-2.58 0-1.26 1.09-2.32 3-2.32a4.37 4.37 0 013.28 1.27l-.66.78a3.53 3.53 0 00-2.58-1.09c-1.38 0-1.92.63-1.92 1.31 0 .85.61 1.21 2.15 1.57 2.22.54 3.36 1.08 3.36 2.81s-1.44 2.54-3.44 2.54a4.27 4.27 0 01-3.48-1.58zM470.54 354.55c0-1.74 1.49-3 6-3.71v-.45a1.6 1.6 0 00-1.79-1.82 4.79 4.79 0 00-3.31 1.4l-.62-.73a5.64 5.64 0 014-1.64 2.51 2.51 0 012.84 2.82v4a6 6 0 00.25 2.19h-1.19a3.9 3.9 0 01-.21-1.26 5.05 5.05 0 01-3.49 1.41c-1.56.01-2.48-.83-2.48-2.21zm6-.13v-2.76c-3.79.64-4.85 1.58-4.85 2.74 0 .92.62 1.41 1.61 1.41a4.6 4.6 0 003.23-1.39zM480.17 347.77h1.16v1.39a4.85 4.85 0 013.38-1.56 2.37 2.37 0 012.63 2.62v6.4h-1.16v-6.18c0-1.25-.55-1.85-1.76-1.85a4.49 4.49 0 00-3.09 1.54v6.49h-1.16zM489.42 352.2c0-3.09 1.63-4.6 3.75-4.6A3.89 3.89 0 01496 349v-4.79h1.16v10.24a5.73 5.73 0 00.27 2.19h-1.23a4.61 4.61 0 01-.2-1.3 3.91 3.91 0 01-2.95 1.45c-2.05-.02-3.63-1.5-3.63-4.59zm6.6 2.13V350a3.74 3.74 0 00-2.75-1.46c-1.57 0-2.69 1.14-2.69 3.65s1.21 3.56 2.69 3.56a3.73 3.73 0 002.73-1.42zM503 344.19h1.21l1.93 7.54c.3 1.14.57 2.27.76 3.12.17-.84.44-2 .72-3.1l1.85-7.56h1.26l1.88 7.62c.29 1.13.54 2.1.71 3 .22-1 .45-1.88.72-3l1.95-7.67h1.14l-3.29 12.43h-1.12l-2.64-10.79-2.67 10.79h-1.11zM519.1 344.47h1.22v1.25h-1.22zm0 3.3h1.16v8.85h-1.16zM522.88 347.77H524v1.39a4.83 4.83 0 013.37-1.56 2.37 2.37 0 012.64 2.62v6.4h-1.16v-6.18c0-1.25-.55-1.85-1.76-1.85a4.47 4.47 0 00-3.09 1.54v6.49h-1.16zM532.13 352.2c0-3.09 1.63-4.6 3.74-4.6a3.89 3.89 0 012.86 1.38v-4.79h1.16v10.24a5.73 5.73 0 00.27 2.19h-1.23a4.61 4.61 0 01-.2-1.3 3.91 3.91 0 01-3 1.45c-1.99 0-3.6-1.48-3.6-4.57zm6.6 2.13V350a3.74 3.74 0 00-2.76-1.46c-1.56 0-2.68 1.14-2.68 3.65s1.21 3.56 2.68 3.56a3.73 3.73 0 002.76-1.42zM542 352.2c0-3 1.83-4.6 4-4.6s4 1.64 4 4.6-1.83 4.6-4 4.6-4-1.66-4-4.6zm6.85 0c0-1.93-1-3.59-2.84-3.59s-2.85 1.51-2.85 3.59 1 3.63 2.85 3.63 2.8-1.51 2.8-3.65zM550.94 347.77h1.21l1.24 4.38c.32 1.13.52 1.86.83 3 .32-1.26.49-1.88.81-3l1.21-4.38h1.05l1.23 4.46c.32 1.08.49 1.77.77 2.93.32-1.2.48-1.82.8-2.89l1.3-4.5h1.12l-2.72 8.85h-1.08l-2-7.28-2 7.28h-1.06zM563.62 355.21l.74-.67a3.46 3.46 0 002.75 1.27c1.51 0 2.3-.55 2.3-1.54s-.7-1.36-2.43-1.77c-2-.5-3.08-1-3.08-2.58 0-1.26 1.09-2.32 3-2.32a4.37 4.37 0 013.28 1.27l-.66.78a3.53 3.53 0 00-2.59-1.09c-1.37 0-1.91.63-1.91 1.31 0 .85.6 1.21 2.15 1.57 2.22.54 3.36 1.08 3.36 2.81s-1.45 2.54-3.45 2.54a4.26 4.26 0 01-3.46-1.58z" transform="translate(-165.8 -188.74)"/><path class="cls-5" d="M375.29 410.58v.15h-.15c-2.53 3.64-5.9 8.47-8.67 12.42l8.17.06 3.71-1.19 4.89-1.57-4.71-14.63c-.53.88-1.73 2.6-3.24 4.76z" transform="translate(-165.8 -188.74)"/><path class="cls-5" d="M207.61 201.2l1.8 19.67 3.32-3.79-5.12-15.88zM205.08 193.36l-27.9 8.99 1.43 4.43 7.28-2.34 6.07 12.94-1.96-14.27 5.88-1.89 6.7 12.74-2.57-14.07 6.5-2.1-1.42-4.43"/><path class="cls-5" d="M363.55 414.52l-6.63 2.13-4.5 6.45h3.63l11.2-12.78-2.56-4.84-2 2.84z" transform="translate(-165.8 -188.74)"/><path class="cls-5" d="M182.09 234.32l1.1.01 6.96-7.94-11.52-19.56-4.83 1.56 2.77 8.6 5.66 1.1 1.36 4.14-4.19 3.92 2.69 8.17z"/><path class="cls-5" d="M373.79 411.22l-5.19 1.67-.91-1.71c-2.56 3.68-5.77 8.28-8.35 12h4z" transform="translate(-165.8 -188.74)"/><path class="cls-5" d="M196.8 218.8l1.98-2.25-3.09-5.84 1.11 8.09z"/><path class="cls-5" d="M387.07 393.27l1.53 5.87c.33 1.29.64 2.49.86 3.68h.07c.26-1.17.64-2.41 1-3.65l1.88-5.9h1.77l1.79 5.78c.43 1.38.77 2.6 1 3.77h.07a34.89 34.89 0 01.88-3.75l1.65-5.8h2.08L398 404.83h-1.91l-1.76-5.52a37.81 37.81 0 01-1-3.8 34.43 34.43 0 01-1.05 3.83l-1.86 5.49h-1.91l-3.49-11.56zM404.74 399.43a3.7 3.7 0 004 4 7.71 7.71 0 003.2-.59l.35 1.5a9.39 9.39 0 01-3.84.72c-3.56 0-5.68-2.34-5.68-5.83s2.05-6.23 5.42-6.23c3.77 0 4.77 3.32 4.77 5.44a6.87 6.87 0 01-.07 1zm6.16-1.5c0-1.34-.55-3.42-2.91-3.42-2.13 0-3.06 2-3.22 3.42zM415.25 402.68a5.57 5.57 0 002.77.83c1.53 0 2.24-.76 2.24-1.71s-.59-1.56-2.14-2.13c-2.08-.74-3.06-1.89-3.06-3.27 0-1.86 1.5-3.39 4-3.39a5.8 5.8 0 012.84.71l-.53 1.53a4.54 4.54 0 00-2.36-.67c-1.24 0-1.94.72-1.94 1.58s.7 1.38 2.2 2c2 .76 3 1.76 3 3.48 0 2-1.58 3.47-4.33 3.47a6.61 6.61 0 01-3.25-.79zM427.53 390v3.32h3v1.6h-3v6.23c0 1.44.4 2.25 1.57 2.25a4.28 4.28 0 001.22-.15l.09 1.58a5 5 0 01-1.86.29 2.89 2.89 0 01-2.27-.89 4.3 4.3 0 01-.81-3v-6.3h-1.79v-1.6h1.79v-2.83zM433.93 399.43a3.7 3.7 0 004 4 7.71 7.71 0 003.2-.59l.36 1.5a9.45 9.45 0 01-3.85.72c-3.56 0-5.68-2.34-5.68-5.83S434 393 437.34 393c3.77 0 4.78 3.32 4.78 5.44a6.57 6.57 0 01-.08 1zm6.16-1.5c0-1.34-.55-3.42-2.92-3.42-2.12 0-3.05 2-3.22 3.42zM444.72 396.88c0-1.37 0-2.54-.1-3.61h1.84l.07 2.27h.1a3.47 3.47 0 013.2-2.53 2.2 2.2 0 01.6.07v2a3.08 3.08 0 00-.72-.07 3 3 0 00-2.82 2.7 5.65 5.65 0 00-.09 1v6.16h-2.08zM452.62 396.4c0-1.2 0-2.17-.09-3.13h1.86l.12 1.91h.05a4.24 4.24 0 013.82-2.17c1.6 0 4.08.95 4.08 4.92v6.9h-2.1v-6.66c0-1.87-.69-3.42-2.67-3.42a3 3 0 00-2.82 2.15 2.9 2.9 0 00-.14 1v6.95h-2.11z" transform="translate(-165.8 -188.74)"/><path class="cls-6" d="M387.45 409l.72 2.74c.15.61.3 1.17.4 1.72.13-.54.31-1.12.48-1.7L390 409h.82l.84 2.7c.2.65.36 1.22.48 1.76a16.79 16.79 0 01.42-1.75l.77-2.71h1l-1.74 5.4h-.9l-.82-2.58a17.06 17.06 0 01-.48-1.77 15.41 15.41 0 01-.49 1.78l-.87 2.57h-.89l-1.63-5.4zM396.37 407.46a.61.61 0 01-1.21 0 .59.59 0 01.61-.61.57.57 0 01.6.61zm-1.09 6.92V409h1v5.4zM397.89 410.44v-1.46h.87v.89a2 2 0 011.79-1c.75 0 1.91.44 1.91 2.29v3.23h-1v-3.11c0-.87-.33-1.6-1.25-1.6a1.4 1.4 0 00-1.32 1 1.64 1.64 0 00-.07.46v3.25h-1zM408.75 406.46V413c0 .48 0 1 .05 1.39h-.89v-.94a2 2 0 01-1.91 1.05 2.46 2.46 0 01-2.32-2.74c0-1.8 1.11-2.9 2.43-2.9a1.83 1.83 0 011.63.82v-3.22zm-1 4.72a1.51 1.51 0 000-.42 1.44 1.44 0 00-1.41-1.13c-1 0-1.62.89-1.62 2.08s.53 2 1.59 2a1.57 1.57 0 001.49-1.6zM415.27 411.63a2.64 2.64 0 01-2.69 2.87 2.57 2.57 0 01-2.59-2.78 2.63 2.63 0 012.68-2.86 2.55 2.55 0 012.6 2.77zm-4.29.06c0 1.18.68 2.08 1.64 2.08s1.65-.88 1.65-2.1c0-.92-.46-2.08-1.62-2.08s-1.65 1.07-1.65 2.1zM416.82 409l.72 2.74c.15.61.3 1.17.4 1.72.12-.54.3-1.12.48-1.7l.88-2.76h.83l.84 2.7c.2.65.35 1.22.48 1.76a16.59 16.59 0 01.41-1.75l.77-2.71h1l-1.74 5.4H421l-.83-2.58c-.19-.6-.34-1.14-.48-1.77a15.41 15.41 0 01-.49 1.78l-.87 2.57h-.89l-1.63-5.4zM426.88 413.38a2.56 2.56 0 001.29.39c.72 0 1.05-.36 1.05-.81s-.28-.72-1-1c-1-.35-1.43-.88-1.43-1.53a1.66 1.66 0 011.86-1.58 2.68 2.68 0 011.33.33l-.24.71a2.2 2.2 0 00-1.11-.31c-.58 0-.9.34-.9.74s.32.65 1 .91c.94.36 1.42.83 1.42 1.63s-.73 1.62-2 1.62a3 3 0 01-1.52-.37zM431.79 409l1.18 3.19c.13.36.26.78.35 1.11.1-.33.21-.74.35-1.13l1.07-3.17h1l-1.48 3.85a8.19 8.19 0 01-1.85 3.38 2.69 2.69 0 01-1.2.64L431 416a2.51 2.51 0 00.86-.48 3 3 0 00.83-1.09.75.75 0 00.07-.24.93.93 0 00-.06-.25l-2-5zM436.49 413.38a2.56 2.56 0 001.29.39c.72 0 1.05-.36 1.05-.81s-.28-.72-1-1c-1-.35-1.43-.88-1.43-1.53a1.66 1.66 0 011.86-1.58 2.68 2.68 0 011.33.33l-.24.71a2.2 2.2 0 00-1.11-.31c-.58 0-.9.34-.9.74s.32.65 1 .91c.94.36 1.42.83 1.42 1.63s-.73 1.62-2 1.62a3 3 0 01-1.52-.37zM442.23 407.43V409h1.4v.75h-1.4v2.91c0 .67.19 1.05.73 1.05a1.89 1.89 0 00.57-.07l.05.74a2.37 2.37 0 01-.87.13 1.34 1.34 0 01-1.06-.41 2 2 0 01-.38-1.41v-2.94h-.84V409h.84v-1.3zM445.22 411.86a1.72 1.72 0 001.85 1.87 3.53 3.53 0 001.5-.28l.16.71a4.43 4.43 0 01-1.79.33 2.51 2.51 0 01-2.66-2.72 2.62 2.62 0 012.53-2.91 2.29 2.29 0 012.24 2.54 3.72 3.72 0 010 .46zm2.88-.71a1.4 1.4 0 00-1.36-1.59 1.62 1.62 0 00-1.51 1.59zM450.26 410.44v-1.46h.86v.87a1.86 1.86 0 011.69-1 1.58 1.58 0 011.53 1.08 2.12 2.12 0 01.6-.71 1.86 1.86 0 011.19-.37c.72 0 1.78.46 1.78 2.34v3.18h-1v-3.06c0-1-.38-1.66-1.17-1.66a1.28 1.28 0 00-1.17.89 1.81 1.81 0 00-.07.49v3.34h-1v-3.24c0-.86-.38-1.48-1.13-1.48a1.34 1.34 0 00-1.22 1 1.51 1.51 0 00-.08.48v3.26h-1zM459.44 413.38a2.56 2.56 0 001.29.39c.72 0 1-.36 1-.81s-.28-.72-1-1c-1-.35-1.43-.88-1.43-1.53a1.66 1.66 0 011.86-1.58 2.68 2.68 0 011.33.33l-.24.71a2.2 2.2 0 00-1.11-.31c-.58 0-.9.34-.9.74s.32.65 1 .91c.94.36 1.42.83 1.42 1.63s-.73 1.62-2 1.62a3 3 0 01-1.52-.37z" transform="translate(-165.8 -188.74)"/><path class="cls-5" d="M468.83 395.29a2.1 2.1 0 01-2.14 2.12 2.11 2.11 0 110-4.21 2.09 2.09 0 012.14 2.09zm-3.76 0a1.61 1.61 0 001.63 1.71 1.67 1.67 0 000-3.34 1.62 1.62 0 00-1.63 1.63zm1.28 1.1h-.48v-2.1a5.12 5.12 0 01.8-.06 1.3 1.3 0 01.73.15.57.57 0 01.2.46.53.53 0 01-.43.49.62.62 0 01.38.51 1.84 1.84 0 00.16.53h-.53a1.91 1.91 0 01-.16-.51c0-.23-.17-.33-.44-.33h-.23zm0-1.19h.23c.26 0 .48-.09.48-.31s-.14-.31-.45-.31h-.26z" transform="translate(-165.8 -188.74)"/><path class="cls-7" d="M324.88 412.89v.79h-.76v-8.14h.76v3.19a2.51 2.51 0 011.93-1c1.33 0 2.39 1 2.39 3s-1.07 3-2.45 3a2.57 2.57 0 01-1.87-.84zm3.56-2.1c0-1.61-.79-2.37-1.76-2.37a2.45 2.45 0 00-1.8 1v2.82a2.48 2.48 0 001.8.94c1.02-.04 1.76-.75 1.76-2.39zM329.62 415.78l.17-.62a3.47 3.47 0 00.81.08 1.14 1.14 0 001.18-.89l.25-.64-2.25-5.83h.82l1.8 4.9 1.79-4.9h.8l-2.5 6.47c-.39 1-.83 1.55-1.94 1.55a3.13 3.13 0 01-.93-.12z" transform="translate(-165.8 -188.74)"/></svg>