<?xml version="1.0" encoding="UTF-8" standalone="no"?>
<svg
   xmlns:dc="http://purl.org/dc/elements/1.1/"
   xmlns:cc="http://creativecommons.org/ns#"
   xmlns:rdf="http://www.w3.org/1999/02/22-rdf-syntax-ns#"
   xmlns:svg="http://www.w3.org/2000/svg"
   xmlns="http://www.w3.org/2000/svg"
   height="41.110001"
   width="43.639999"
   version="1.1"
   viewBox="0 0 43.64 41.110001"
   id="Layer_1">
  <metadata
     id="metadata275">
    <rdf:RDF>
      <cc:Work
         rdf:about="">
        <dc:format>image/svg+xml</dc:format>
        <dc:type
           rdf:resource="http://purl.org/dc/dcmitype/StillImage" />
        <dc:title></dc:title>
      </cc:Work>
    </rdf:RDF>
  </metadata>
  <defs
     id="defs238">
    <style
       id="style236">.cls-2{fill:#97caeb}.cls-3{fill:#fff}.cls-4{fill:#004876}.cls-5{fill:#c62032}.cls-6{fill:#585b5c}.cls-7{fill:#231f20}</style>
  </defs>
  <path
     style="fill:#ffffff"
     id="path244"
     d="m -36.5,-138.68 h 92.34 c 0,0 -5.53,-4.17 -9.52,-4.17 -3.99,0 -4.89,1.58 -7.25,1.58 -3.54,0 -6.29,-10.1 -15.53,-10.1 -14.58,0 -22.3,9.08 -29.54,9.08 -4.58,0 -5.67,-2.4 -9.29,-2.4 -7.61,0 -21.21,6.01 -21.21,6.01 z m 98.35,-8.17 h 25.14 c 0,0 -3,-3.86 -9.46,-3.86 -6.46,0 -15.68,3.86 -15.68,3.86 z"
     class="cls-3" />
  <path
     style="fill:#c62032"
     id="path252"
     d="m 35.69,28.48 v 0.15 h -0.15 c -2.53,3.64 -5.9,8.47 -8.67,12.42 l 8.17,0.06 3.71,-1.19 4.89,-1.57 -4.71,-14.63 c -0.53,0.88 -1.73,2.6 -3.24,4.76 z"
     class="cls-5" />
  <path
     style="fill:#c62032"
     id="path254"
     d="m 33.81,7.84 1.8,19.67 3.32,-3.79 z M 31.28,0 3.38,8.99 4.81,13.42 12.09,11.08 18.16,24.02 16.2,9.75 22.08,7.86 28.78,20.6 26.21,6.53 32.71,4.43 31.29,0"
     class="cls-5" />
  <path
     style="fill:#c62032"
     id="path256"
     d="m 23.95,32.42 -6.63,2.13 -4.5,6.45 h 3.63 l 11.2,-12.78 -2.56,-4.84 -2,2.84 z"
     class="cls-5" />
  <path
     style="fill:#c62032"
     id="path258"
     d="m 8.29,40.96 1.1,0.01 6.96,-7.94 L 4.83,13.47 0,15.03 l 2.77,8.6 5.66,1.1 1.36,4.14 -4.19,3.92 z"
     class="cls-5" />
  <path
     style="fill:#c62032"
     id="path260"
     d="M 34.19,29.12 29,30.79 28.09,29.08 c -2.56,3.68 -5.77,8.28 -8.35,12 h 4 z"
     class="cls-5" />
  <path
     style="fill:#c62032"
     id="path262"
     d="m 23,25.44 1.98,-2.25 -3.09,-5.84 z"
     class="cls-5" />
</svg>
