<?xml version="1.0" standalone="no"?>
<!DOCTYPE svg PUBLIC "-//W3C//DTD SVG 20010904//EN"
 "http://www.w3.org/TR/2001/REC-SVG-20010904/DTD/svg10.dtd">
<svg version="1.0" xmlns="http://www.w3.org/2000/svg"
 width="700.000000pt" height="700.000000pt" viewBox="0 0 700.000000 700.000000"
 preserveAspectRatio="xMidYMid meet">
<metadata>
Created by potrace 1.11, written by Peter Selinger 2001-2013
</metadata>
<g transform="translate(0.000000,700.000000) scale(0.100000,-0.100000)"
fill="#000000" stroke="none">
<path d="M6485 6094 c-142 -22 -549 -85 -580 -90 -44 -7 -71 -11 -160 -24 -44
-7 -87 -13 -95 -15 -8 -2 -35 -6 -60 -9 -25 -3 -55 -8 -66 -10 -25 -5 -57 -10
-169 -26 -44 -6 -91 -13 -105 -16 -46 -8 -145 -23 -190 -29 -25 -3 -85 -12
-135 -20 -49 -8 -137 -22 -195 -30 -58 -9 -118 -19 -135 -21 -16 -3 -44 -7
-61 -9 -37 -5 -191 -29 -319 -50 -49 -8 -110 -17 -135 -20 -25 -3 -52 -7 -60
-10 -8 -2 -37 -6 -65 -10 -27 -3 -57 -8 -65 -10 -8 -2 -37 -6 -65 -10 -27 -3
-57 -8 -65 -10 -8 -2 -35 -6 -60 -9 -25 -3 -56 -8 -69 -11 -12 -2 -44 -7 -70
-10 -25 -3 -71 -9 -101 -15 -30 -5 -73 -12 -95 -15 -22 -3 -65 -10 -95 -15
-30 -5 -71 -11 -90 -14 -63 -9 -113 -17 -245 -37 -71 -11 -148 -22 -170 -25
-22 -4 -49 -8 -60 -10 -10 -2 -37 -6 -60 -10 -22 -3 -96 -14 -165 -25 -382
-59 -579 -89 -610 -93 -91 -13 -108 -16 -145 -22 -22 -3 -48 -8 -58 -10 -10
-2 -83 -13 -162 -24 -79 -11 -152 -22 -162 -24 -10 -2 -43 -7 -73 -12 -30 -4
-57 -8 -60 -9 -3 -1 -30 -5 -60 -9 -30 -5 -62 -10 -70 -11 -13 -2 -48 -8 -130
-20 -116 -18 -232 -35 -240 -35 -9 0 -8 -38 5 -110 1 -8 11 -68 21 -133 l18
-119 50 6 c27 4 59 9 70 11 12 2 37 7 56 10 19 2 46 7 60 9 14 3 45 7 70 10
25 3 54 8 65 10 20 3 101 16 140 21 11 2 49 8 85 14 61 10 89 14 178 26 20 3
62 10 92 15 30 5 73 12 95 15 22 2 139 20 260 39 121 19 238 37 260 40 22 3
51 8 65 10 14 3 41 7 60 10 19 3 98 15 175 26 77 12 156 24 175 26 19 3 73 11
120 19 47 7 106 16 131 20 25 3 57 8 70 10 13 2 85 14 159 25 74 11 146 23
160 25 14 2 131 20 260 40 129 20 246 38 260 40 38 6 301 45 335 50 17 2 74
11 128 20 53 8 141 22 195 30 53 8 153 24 222 35 69 11 143 22 165 25 22 3 51
8 65 10 14 2 43 7 65 10 23 3 52 7 65 10 13 2 60 9 104 15 45 6 119 17 166 25
130 22 269 43 325 51 28 3 59 8 70 10 25 5 118 19 190 29 22 3 51 7 65 10 14
3 42 7 63 10 52 7 98 14 127 19 14 3 75 12 135 21 61 9 126 19 145 22 49 9
127 9 180 1 25 -4 61 -10 80 -13 19 -2 69 -9 110 -15 41 -6 87 -13 103 -16
l27 -6 0 185 0 184 -77 12 c-43 7 -89 14 -103 16 -14 2 -56 9 -95 15 -105 17
-152 18 -240 4z"/>
<path d="M1946 4710 c-10 -4 -12 -350 -12 -1827 0 -1003 2 -1823 5 -1824 4 -1
1143 -2 2534 -3 l2527 -1 0 183 c0 110 -4 182 -10 182 -5 0 -49 20 -98 44
-136 66 -309 133 -419 161 -87 22 -113 24 -228 20 -71 -2 -146 -7 -165 -10
-19 -3 -71 -12 -115 -20 -44 -8 -106 -17 -138 -21 l-57 -6 2 649 3 648 613 0
612 0 0 260 0 260 -47 40 c-25 22 -58 50 -72 63 -33 29 -142 91 -201 115 -86
34 -178 46 -325 42 -77 -2 -151 -6 -165 -9 -14 -2 -47 -7 -75 -11 -69 -9 -228
-43 -277 -61 -73 -26 -68 -55 -68 376 l0 390 615 0 615 0 -2 182 -3 183 -2518
0 c-1385 0 -2524 -2 -2531 -5z m1888 -912 l0 -553 -25 -7 c-13 -4 -80 -19
-149 -34 -135 -29 -307 -79 -490 -142 -145 -50 -428 -161 -434 -170 -2 -4 244
-7 547 -7 l551 0 1 -615 c0 -338 -1 -621 -3 -627 -3 -9 -31 -11 -106 -9 -238
10 -373 55 -606 206 -201 130 -319 177 -510 206 -19 2 -96 7 -170 11 -74 3
-137 7 -139 9 -3 3 -5 2176 -2 2262 l1 22 768 0 767 0 -1 -552z m1791 136 l0
-417 -30 -13 c-124 -56 -230 -106 -425 -201 -329 -161 -412 -189 -566 -192
-110 -3 -180 14 -319 74 -136 58 -165 66 -240 68 l-65 2 0 98 c-1 122 -1 798
0 912 l0 85 823 0 822 0 0 -416z m-4 -1054 c1 -3 2 -296 3 -652 l1 -648 -60 0
c-84 0 -181 29 -342 103 -164 76 -241 102 -348 120 -150 25 -244 12 -476 -68
-129 -44 -273 -79 -366 -89 l-53 -5 0 144 c0 80 0 309 0 510 0 201 0 416 0
478 l0 112 820 0 c451 0 821 -2 821 -5z"/>
</g>
</svg>
