<?xml version="1.0" standalone="no"?>
<!DOCTYPE svg PUBLIC "-//W3C//DTD SVG 20010904//EN"
 "http://www.w3.org/TR/2001/REC-SVG-20010904/DTD/svg10.dtd">
<svg version="1.0" xmlns="http://www.w3.org/2000/svg"
 width="704.000000pt" height="704.000000pt" viewBox="0 0 704.000000 704.000000"
 preserveAspectRatio="xMidYMid meet">
<metadata>
Created by potrace 1.11, written by Peter Selinger 2001-2013
</metadata>
<g transform="translate(0.000000,704.000000) scale(0.100000,-0.100000)"
fill="#000000" stroke="none">
<path d="M4905 6785 c-108 -36 -508 -166 -525 -170 -3 -1 -18 -5 -35 -10 -16
-4 -36 -12 -42 -18 -7 -5 -13 -7 -13 -4 0 3 -33 -5 -72 -19 -40 -14 -80 -27
-88 -29 -8 -2 -121 -38 -250 -80 -129 -43 -239 -78 -245 -79 -5 -1 -55 -17
-110 -35 -55 -18 -104 -34 -110 -35 -5 -1 -14 -4 -20 -7 -8 -5 -145 -49 -165
-54 -3 0 -36 -11 -75 -24 -38 -12 -182 -58 -320 -102 -277 -89 -378 -122 -445
-145 -25 -9 -52 -17 -60 -19 -8 -2 -27 -8 -43 -14 -15 -6 -38 -13 -50 -15 -12
-2 -40 -11 -62 -19 -22 -9 -114 -39 -205 -67 -91 -29 -174 -56 -185 -60 -17
-8 -220 -72 -235 -75 -3 0 -99 -32 -215 -69 -193 -63 -429 -139 -679 -219
-100 -32 -118 -46 -99 -76 6 -9 14 -32 18 -51 4 -19 13 -48 20 -65 11 -27 75
-225 81 -250 4 -20 96 -300 100 -304 2 -2 54 13 117 33 63 20 117 36 120 36 3
0 18 5 34 12 15 6 30 12 33 13 22 5 194 59 228 71 23 9 48 17 55 18 6 2 19 6
27 9 8 3 74 25 145 47 72 23 191 61 265 86 74 24 139 44 143 44 7 0 46 -78
150 -301 19 -41 53 -112 75 -159 22 -47 57 -121 77 -165 21 -44 55 -117 76
-162 22 -46 56 -120 78 -165 21 -46 57 -123 81 -173 23 -49 57 -122 76 -161
18 -39 46 -100 63 -135 16 -35 51 -111 79 -169 94 -200 120 -255 170 -362 28
-60 53 -108 56 -108 5 0 4 11 -8 85 -3 17 -10 66 -16 110 -6 44 -13 95 -15
113 -3 17 -7 47 -10 65 -2 17 -9 68 -16 112 -6 44 -12 89 -14 100 -8 67 -17
130 -20 144 -1 9 -6 45 -10 81 -4 36 -9 74 -11 85 -2 11 -6 40 -9 65 -3 25
-10 72 -15 105 -6 33 -12 78 -15 100 -3 22 -7 56 -10 75 -2 19 -7 55 -10 80
-3 25 -10 74 -15 110 -5 36 -12 88 -15 115 -4 28 -8 61 -11 75 -2 14 -7 45
-10 70 -3 25 -7 56 -10 70 -2 14 -6 45 -9 70 -3 25 -7 59 -10 75 -3 17 -7 50
-10 75 -4 25 -8 59 -10 75 -2 17 -6 41 -9 55 -2 14 -7 50 -11 80 -4 30 -8 62
-10 71 -2 12 15 22 69 38 39 13 80 27 91 31 21 9 153 51 170 54 6 1 35 11 65
21 30 11 57 20 60 20 3 1 37 11 75 24 39 12 77 24 85 26 8 2 35 11 60 20 83
30 235 77 255 78 21 2 23 0 125 -198 34 -66 66 -124 70 -130 4 -5 49 -91 100
-190 51 -99 105 -202 120 -230 15 -27 55 -104 90 -170 141 -270 163 -311 172
-322 6 -7 7 -13 3 -13 -5 0 -2 -8 6 -17 8 -10 27 -40 41 -68 25 -48 75 -143
177 -337 26 -51 74 -142 106 -203 31 -60 61 -115 66 -121 5 -6 6 -14 2 -17 -3
-4 -1 -7 6 -7 9 0 11 8 6 28 -9 35 -12 51 -19 98 -4 22 -11 62 -16 89 -5 28
-11 61 -14 75 -5 34 -18 101 -23 125 -2 11 -8 45 -13 75 -6 30 -12 66 -15 80
-8 41 -36 193 -41 225 -3 17 -9 50 -14 75 -5 25 -11 59 -14 75 -5 32 -33 184
-41 225 -3 14 -9 50 -15 80 -5 30 -12 66 -15 80 -6 28 -7 35 -30 165 -9 50
-18 102 -20 117 -2 15 -6 35 -9 45 -3 10 -7 34 -10 53 -3 19 -8 46 -10 60 -3
14 -7 36 -10 50 -7 41 -18 104 -23 125 -2 11 -10 58 -19 105 -8 47 -17 96 -19
110 -18 94 -24 84 62 113 43 14 155 50 248 80 94 30 271 88 395 128 124 40
227 74 230 74 50 11 90 29 90 41 0 8 -9 43 -21 77 -12 34 -23 69 -24 77 -2 8
-24 76 -48 150 -25 74 -64 195 -87 268 -24 72 -46 132 -49 131 -3 0 -64 -20
-136 -44z"/>
<path d="M5459 5525 c-4 -3 -3 -25 1 -48 5 -23 11 -80 15 -127 3 -47 8 -103
10 -125 12 -131 15 -159 20 -222 3 -37 8 -88 11 -113 3 -25 7 -72 9 -105 3
-33 7 -78 9 -100 2 -22 7 -74 10 -115 4 -41 9 -91 11 -110 2 -19 6 -62 9 -95
5 -60 12 -134 22 -235 5 -58 8 -90 18 -210 7 -79 12 -131 21 -220 4 -30 8 -77
10 -105 2 -27 7 -81 10 -120 14 -132 24 -250 30 -320 2 -22 6 -69 9 -105 4
-36 9 -87 11 -115 3 -27 7 -75 10 -105 3 -30 7 -84 10 -120 3 -36 7 -78 9 -95
2 -16 7 -68 11 -115 4 -47 9 -88 12 -93 2 -4 16 7 31 25 15 18 34 40 42 48 23
24 90 100 145 165 28 33 63 72 78 89 15 16 47 52 70 80 57 67 151 165 141 146
-13 -26 -49 -75 -59 -82 -7 -5 -7 -8 0 -8 6 0 5 -4 -1 -8 -6 -4 -49 -63 -95
-132 -46 -69 -86 -127 -89 -130 -14 -13 -70 -100 -70 -108 0 -6 -3 -12 -7 -14
-16 -6 -173 -232 -173 -247 0 -6 -8 -15 -18 -20 -10 -5 -35 -36 -57 -68 -22
-32 -58 -83 -80 -114 -22 -31 -46 -65 -53 -75 -7 -11 -44 -64 -82 -119 -39
-55 -74 -107 -80 -115 -5 -8 -37 -53 -70 -100 -33 -47 -64 -92 -70 -100 -34
-51 -292 -420 -310 -445 -12 -16 -84 -120 -161 -230 -76 -110 -142 -204 -147
-210 -4 -5 -28 -39 -52 -75 -25 -36 -49 -69 -53 -75 -4 -5 -44 -62 -88 -125
-44 -63 -86 -123 -94 -132 -14 -17 -11 -18 38 -19 28 0 327 -2 663 -4 l611 -4
89 30 c49 16 98 32 109 34 11 3 31 9 45 14 14 5 120 39 235 76 116 37 227 73
248 81 20 7 40 14 45 15 9 2 -6 -3 237 74 359 115 372 119 369 135 -1 8 -13
49 -27 90 -14 41 -56 169 -92 285 -37 116 -71 219 -76 230 -5 11 -10 29 -12
40 -1 11 -5 25 -9 30 -6 10 -60 185 -60 195 0 3 -9 28 -20 55 -11 28 -22 59
-25 70 -6 26 -9 37 -16 55 -8 22 -160 493 -163 505 -2 10 -72 228 -81 255 -4
8 -7 20 -8 25 -2 6 -24 75 -50 155 -26 80 -69 213 -96 295 -26 83 -58 182 -71
220 -12 39 -23 72 -23 75 -1 3 -4 12 -7 20 -11 27 -60 184 -62 195 -1 5 -7 24
-13 40 -6 17 -39 116 -72 220 -34 105 -83 260 -111 345 -28 85 -69 214 -91
285 -22 72 -44 139 -49 150 -9 20 -32 92 -36 110 -1 6 -23 75 -49 155 -26 79
-48 149 -50 155 -1 5 -5 17 -8 25 -4 8 -25 74 -48 145 -108 339 -145 446 -150
440z"/>
<path d="M750 4648 c-14 -5 -32 -11 -40 -13 -22 -4 -271 -85 -295 -95 -17 -7
-190 -62 -205 -65 -3 0 -30 -9 -60 -20 -30 -11 -57 -20 -60 -20 -51 -12 -88
-28 -85 -38 2 -6 15 -50 30 -97 34 -108 210 -657 234 -730 11 -30 29 -86 40
-125 12 -38 25 -77 28 -85 3 -8 7 -20 9 -27 5 -24 45 -148 53 -163 4 -8 16
-45 27 -82 18 -65 21 -68 54 -75 19 -4 37 -8 40 -8 3 -1 28 -5 55 -10 57 -10
50 -9 90 -18 17 -4 44 -9 60 -12 48 -8 240 -45 305 -59 8 -2 33 -7 55 -11 22
-4 51 -9 65 -12 14 -3 34 -7 45 -8 11 -2 20 -4 20 -5 0 -1 9 -3 20 -4 72 -10
135 -29 135 -42 0 -7 47 -157 105 -331 l105 -318 -53 -49 c-82 -76 -253 -236
-311 -291 -165 -156 -289 -271 -298 -276 -10 -7 -3 -73 10 -94 4 -5 7 -14 8
-20 1 -5 46 -143 99 -305 54 -162 97 -296 96 -298 -1 -1 6 -16 14 -32 8 -16
15 -33 15 -37 -1 -9 171 -535 177 -543 2 -2 43 -5 91 -6 97 -2 85 -8 169 93
17 21 48 56 68 78 20 22 76 85 123 140 48 55 97 110 109 122 13 12 23 25 23
28 0 3 17 23 37 45 21 21 47 50 58 63 27 32 149 171 155 177 3 3 37 41 75 85
39 44 72 82 75 85 3 3 34 39 69 80 36 41 70 80 75 85 6 6 36 39 66 74 30 36
67 78 82 94 l26 29 -19 32 c-10 17 -31 53 -46 80 -16 27 -33 56 -38 65 -6 9
-30 50 -54 91 -25 41 -48 76 -53 78 -4 2 -8 10 -8 18 0 8 -9 27 -19 42 -10 15
-64 104 -119 197 -55 94 -165 282 -246 419 -80 136 -146 252 -146 257 0 5 -3
9 -7 9 -5 0 -13 10 -19 23 -10 19 -39 69 -128 220 -10 18 -72 124 -138 237
-66 113 -138 233 -159 267 -22 34 -39 65 -39 68 0 3 -11 22 -24 43 -13 20 -35
55 -48 78 -36 63 -171 292 -190 322 -9 15 -23 38 -31 52 -7 14 -60 104 -117
200 -57 96 -125 213 -152 260 -27 47 -53 88 -56 91 -4 4 -18 3 -32 -3z"/>
<path d="M3536 3999 c3 -13 7 -46 10 -74 3 -27 7 -61 9 -75 7 -42 23 -154 30
-215 5 -39 11 -79 20 -140 3 -16 7 -46 9 -65 9 -73 18 -136 22 -160 2 -14 8
-61 14 -105 6 -44 13 -91 15 -105 2 -14 7 -52 10 -85 4 -33 8 -62 10 -65 2 -3
6 -30 9 -60 4 -30 8 -64 11 -75 2 -11 4 -26 4 -34 1 -13 19 4 101 99 25 29 56
64 70 80 38 42 124 141 137 159 9 13 4 30 -27 86 -21 38 -60 113 -87 165 -61
116 -144 272 -191 360 -19 36 -64 121 -100 190 -69 134 -85 158 -76 119z"/>
<path d="M4030 3042 c0 -6 -149 -223 -177 -257 -4 -5 -21 -30 -38 -55 -16 -25
-33 -47 -36 -50 -3 -3 -14 -20 -24 -37 -11 -18 -22 -33 -26 -33 -3 0 -2 -24 2
-52 5 -29 11 -73 14 -98 3 -25 7 -61 10 -80 3 -19 8 -53 11 -75 3 -22 7 -53 9
-70 20 -138 42 -297 50 -360 8 -59 15 -108 20 -134 2 -12 7 -49 10 -81 l6 -58
-78 -26 c-43 -15 -85 -28 -93 -30 -25 -7 -309 -98 -585 -187 -38 -13 -72 -23
-75 -24 -3 0 -18 -6 -35 -12 -16 -7 -68 -24 -115 -38 l-86 -26 -119 -171 c-66
-94 -127 -181 -135 -194 -45 -65 -125 -180 -132 -189 -5 -5 -44 -62 -88 -125
-44 -63 -84 -122 -90 -130 -126 -178 -158 -226 -154 -229 2 -2 132 -3 290 -3
l288 0 35 40 c20 23 59 67 86 99 28 32 62 71 78 86 15 16 27 30 27 33 0 2 8
12 18 22 29 31 83 92 182 207 52 61 100 115 106 120 5 6 55 62 110 125 54 63
110 127 124 141 14 15 39 44 57 65 17 22 44 53 60 70 15 17 51 58 80 90 28 32
64 73 80 91 15 17 44 50 63 73 19 23 44 52 55 64 11 12 49 55 85 96 36 41 74
84 85 96 11 13 43 49 70 80 28 32 57 65 65 74 13 13 115 131 220 254 14 16 36
41 50 55 14 15 35 39 48 53 l23 26 -57 108 c-32 60 -76 145 -98 189 -23 44
-43 82 -46 85 -3 3 -13 21 -22 40 -10 19 -51 98 -93 175 -42 77 -79 148 -82
158 -5 16 -33 25 -33 9z"/>
<path d="M4517 2124 c-4 -11 -20 -37 -37 -59 -17 -22 -56 -78 -88 -125 -31
-47 -59 -87 -62 -90 -6 -6 -54 -75 -121 -175 -30 -44 -56 -82 -60 -85 -3 -3
-25 -34 -50 -70 -24 -36 -46 -67 -49 -70 -3 -3 -27 -39 -55 -80 -27 -41 -53
-77 -56 -80 -3 -3 -41 -57 -84 -120 -44 -63 -83 -119 -88 -125 -4 -5 -82 -118
-174 -250 -91 -132 -219 -317 -284 -411 -66 -95 -119 -173 -119 -175 0 -2 144
-4 320 -4 l320 0 23 26 c12 14 47 55 78 90 31 35 70 80 85 99 16 19 36 42 44
50 8 9 34 38 58 65 24 28 65 75 92 105 27 30 57 65 67 76 33 39 118 136 143
164 14 15 44 50 67 76 23 27 54 63 68 79 15 17 48 54 73 84 26 30 52 59 57 65
11 12 125 143 165 190 14 16 32 36 41 45 9 9 60 68 115 131 118 137 150 174
185 211 15 15 33 36 40 47 8 10 34 42 59 69 40 44 110 124 192 217 15 17 26
32 24 33 -1 2 -16 -2 -32 -7 -16 -6 -76 -25 -134 -44 -58 -18 -152 -48 -210
-67 -58 -18 -107 -34 -110 -34 -3 -1 -12 -4 -20 -8 -29 -12 -307 -97 -316 -97
-5 0 -36 52 -69 115 -33 63 -67 124 -76 136 -15 20 -16 21 -22 3z"/>
</g>
</svg>
